<?xml version="1.0" encoding="UTF-8" standalone="no"?>
<svg
   xmlns:dc="http://purl.org/dc/elements/1.1/"
   xmlns:cc="http://creativecommons.org/ns#"
   xmlns:rdf="http://www.w3.org/1999/02/22-rdf-syntax-ns#"
   xmlns:svg="http://www.w3.org/2000/svg"
   xmlns="http://www.w3.org/2000/svg"
   viewBox="0 0 642.51962 194.51694"
   height="5.1465945cm"
   width="17cm"
   xml:space="preserve"
   id="svg2"
   version="1.1"><metadata
     id="metadata8"><rdf:RDF><cc:Work
         rdf:about=""><dc:format>image/svg+xml</dc:format><dc:type
           rdf:resource="http://purl.org/dc/dcmitype/StillImage" /><dc:title></dc:title></cc:Work></rdf:RDF></metadata><defs
     id="defs6" /><g
     transform="matrix(1.3333333,0,0,-1.3333333,15.170705,263.57327)"
     id="g10"><g
       transform="scale(0.1)"
       id="g12"><path
         id="path18"
         style="fill:#f5d517;fill-opacity:1;fill-rule:evenodd;stroke:none;stroke-width:2.65355659"
         d="m 3617.1471,1614.8692 c 72.1503,0 140.0017,-18.9729 198.8841,-52.1689 -47.6048,-26.8274 -89.2656,-62.9158 -122.5412,-105.8503 -24.1473,7.4299 -49.8073,11.4368 -76.3429,11.4368 -143.292,0 -260.1812,-116.8627 -260.1812,-260.1706 0,-143.2921 116.8892,-260.15204 260.1812,-260.15204 26.5356,0 52.1956,3.99095 76.3429,11.43418 33.2756,-42.88414 74.9629,-79.02823 122.5412,-105.85304 -58.8824,-33.16945 -126.7338,-52.1583 -198.8841,-52.1583 -224.0132,0 -406.737,182.70003 -406.737,406.7292 0,224.0292 182.7238,406.753 406.737,406.753 z M 3938.6255,1456.85 c 53.3896,-68.8333 85.2853,-155.1747 85.2853,-248.7338 0,-93.5167 -31.8957,-179.8607 -85.3118,-248.71786 -48.3212,14.89441 -90.672,43.53426 -122.5678,81.33686 38.2113,45.2961 61.2972,103.7275 61.2972,167.381 0,63.6747 -23.0859,122.106 -61.2972,167.4288 31.8958,37.7601 74.2466,66.3919 122.5943,81.305" /><path
         id="path20"
         style="fill:#226bad;fill-opacity:1;fill-rule:evenodd;stroke:none;stroke-width:2.65355659"
         d="M 603.75766,971.6392 C 546.8203,932.6956 481.34114,915.64384 419.23995,918.07981 c -66.08948,2.57129 -128.38437,27.31305 -172.47056,71.4072 -101.17747,101.19869 -104.21314,301.49179 -0.46438,400.75869 43.91637,42.0058 117.40927,71.9114 182.15074,71.8848 64.76271,-0.053 119.43128,-16.7439 168.15854,-52.1689 l -43.69081,-86.7792 c -64.38855,60.6947 -166.52925,67.4614 -233.99859,-7.2761 -57.35131,-63.5288 -57.94306,-189.6974 0.2574,-252.7194 67.75061,-73.39738 169.35264,-59.9333 233.06719,-5.2354 z m 488.61534,219.5712 c 0,54.0981 -13.5252,96.1701 -40.5914,126.3968 -27.0637,30.0754 -65.0733,45.1742 -113.71826,45.1742 -48.645,0 -86.95705,-15.5233 -114.93084,-46.6044 -27.83316,-31.0546 -41.81475,-74.1351 -41.81475,-129.3503 0,-55.4886 13.53579,-98.2559 40.45613,-128.5223 26.90706,-30.0489 64.90864,-45.153 113.86411,-45.153 46.36559,0 84.07531,16.3672 113.11841,49.1439 29.1786,32.6202 43.6166,75.6874 43.6166,128.9151 z m 94.1402,-261.06488 h -93.6626 v 57.27968 c -21.4991,-29.48898 -46.562,-42.36404 -75.3371,-56.73039 -28.76192,-14.34512 -61.67399,-21.50707 -98.845,-21.50707 -74.48534,0 -133.16343,24.67011 -176.04492,74.05015 -42.8629,49.35081 -64.23464,116.92101 -64.23464,202.79011 0,81.4933 21.94226,147.2193 65.6543,197.2653 43.73061,50.0462 100.83515,75.1223 171.35077,75.1223 43.0168,0 79.78185,-8.6241 110.38269,-26.058 30.6485,-17.4338 52.9862,-24.3861 67.0739,-57.0249 v 65.3041 h 93.6626 z m 277.4533,456.43828 c 13.8674,27.0397 22.7516,37.3887 39.4186,48.9051 16.6563,11.4898 33.1588,16.3724 56.7409,16.3724 23.5609,0 32.6812,-1.9372 48.6556,-5.944 16.0036,-3.9804 26.4427,-8.3322 41.8865,-15.8948 l -43.3592,-91.0966 c -8.7488,8.8098 -15.3402,18.7076 -28.5974,24.227 -13.2465,5.5459 -35.9902,8.0934 -54.8039,1.8309 -18.7924,-6.2889 -26.7107,-14.3027 -43.6058,-45.2935 -16.8873,-31.0148 -16.3353,-92.3146 -16.3353,-165.5262 V 930.14552 h -98.8159 v 511.60568 h 98.8159 z m 375.6003,0 c 13.8595,27.0397 22.7436,37.3887 39.4106,48.9051 16.667,11.4898 33.1588,16.3724 56.7303,16.3724 23.5822,0 32.6813,-1.9372 48.6769,-5.944 15.9717,-3.9804 26.44,-8.3322 41.8758,-15.8948 l -43.3697,-91.0966 c -8.7382,8.8098 -15.319,18.7076 -28.5974,24.227 -13.2466,5.5459 -36.0008,8.0934 -54.804,1.8309 -18.7924,-6.2889 -26.7213,-14.3027 -43.5952,-45.2935 -16.8873,-31.0148 -16.3273,-92.3146 -16.3273,-165.5262 V 930.14552 h -98.8344 v 511.60568 h 98.8344 z m 265.5732,240.2 c 0,18.1768 6.6763,33.647 19.9017,46.8883 13.3633,13.1086 29.2316,19.6629 47.5278,19.6629 19.1427,0 34.889,-6.3155 47.6075,-18.9199 12.6256,-12.7105 18.9385,-28.4727 18.9385,-47.6313 0,-19.0261 -6.427,-35.0536 -19.1668,-48.0029 -12.8431,-12.9758 -28.5973,-19.3975 -47.3792,-19.3975 -18.2962,0 -34.1645,6.6604 -47.5278,19.9017 -13.2254,13.3474 -19.9017,29.2422 -19.9017,47.4987 z m 15.5817,-696.63828 v 510.49128 h 98.8131 V 930.14552 Z m 230.3924,96.04548 79.5483,48.3452 c 25.7926,-53.0181 55.8043,-70.4228 104.8951,-70.4228 23.537,0 41.9527,4.044 55.2736,15.9213 13.3473,11.8482 20.0078,28.0906 20.0078,48.7088 0,27.4563 -15.8152,62.2444 -63.4465,81.6366 -16.0806,6.5304 -28.4461,11.9304 -37.1764,15.9638 -59.1212,27.3343 -131.7225,65.5402 -131.7225,148.111 0,97.6296 89.6106,142.3951 166.6434,142.3951 50.3113,0 101.7638,-28.4992 130.8999,-78.5984 l -68.9129,-51.7629 c -15.9479,26.6072 -40.4933,45.5536 -65.7817,45.5536 -19.8751,0 -35.9291,-5.2009 -47.8967,-15.7091 -12.1001,-10.508 -18.1503,-24.4392 -18.1503,-41.8783 0,-26.2251 27.0398,-50.2505 80.9866,-71.946 17.142,-6.6948 30.2505,-12.1585 39.6176,-16.5024 42.1119,-18.4289 72.2564,-39.3258 90.3801,-62.669 18.1504,-23.2081 27.3051,-52.2725 27.3051,-87.1004 0,-50.4813 -16.5316,-90.15991 -49.648,-118.74667 -33.1695,-28.58942 -78.8903,-38.22714 -137.0562,-38.22714 -79.6067,0 -139.7363,24.89567 -175.7663,106.92771 z m 1663.8012,588.6782 c 224.0132,0 406.7372,-182.7238 406.7372,-406.753 0,-224.02917 -182.724,-406.7292 -406.7372,-406.7292 -72.1502,0 -140.0282,18.98885 -198.8841,52.1583 47.5783,26.82481 89.2391,62.9689 122.5943,105.85304 24.1209,-7.44323 49.7808,-11.43418 76.2898,-11.43418 143.3186,0 260.1812,116.85994 260.1812,260.15204 0,143.3079 -116.8626,260.1706 -260.1812,260.1706 -26.509,0 -52.1689,-4.0069 -76.2898,-11.4368 -33.3552,42.8814 -75.016,79.0229 -122.5943,105.8503 58.8559,33.196 126.7339,52.1689 198.8841,52.1689 z M 3693.49,959.39834 c -53.4161,68.85716 -85.3118,155.20116 -85.3118,248.71786 0,93.5591 31.8426,179.9005 85.3118,248.7338 48.3213,-14.9131 90.6986,-43.5449 122.5412,-81.305 -38.2377,-45.3228 -61.2972,-103.7541 -61.2972,-167.4288 0,-63.6535 23.0595,-122.0849 61.2972,-167.381 -31.8426,-37.8026 -74.2199,-66.44245 -122.5412,-81.33686" /></g></g></svg>