<?xml version="1.0" encoding="UTF-8" standalone="no"?>
<svg
   xmlns:dc="http://purl.org/dc/elements/1.1/"
   xmlns:cc="http://creativecommons.org/ns#"
   xmlns:rdf="http://www.w3.org/1999/02/22-rdf-syntax-ns#"
   xmlns:svg="http://www.w3.org/2000/svg"
   xmlns="http://www.w3.org/2000/svg"
   version="1.1"
   width="17cm"
   height="6.2445297cm"
   id="svg41"
   viewBox="0 0 642.51966 236.01371">
  <metadata
     id="metadata47">
    <rdf:RDF>
      <cc:Work
         rdf:about="">
        <dc:format>image/svg+xml</dc:format>
        <dc:type
           rdf:resource="http://purl.org/dc/dcmitype/StillImage" />
        <dc:title></dc:title>
      </cc:Work>
    </rdf:RDF>
  </metadata>
  <defs
     id="defs45" />
  <path
     d="m 82.272483,64.733668 c -9.378082,0 -16.994996,7.509929 -16.989487,16.795954 0.0089,9.282292 7.621891,16.806439 17.010635,16.806439 l 25.744139,0.01422 c 4.52483,0 10.07135,-3.152507 12.32266,-7.031873 l 25.08677,-42.96288 c 3.39242,-5.805986 11.71149,-10.545854 18.49474,-10.533236 h 39.47431 c 24.57086,0.01422 44.50884,19.684019 44.51594,43.968931 0.0196,24.277807 -19.8987,43.961287 -44.47879,43.934627 h -15.11476 c -4.5243,0 -10.06922,3.16513 -12.32817,7.03046 l -7.85115,13.3854 -32.23629,-0.016 21.78285,-37.22087 c 3.38567,-5.80439 11.69017,-10.53164 18.48088,-10.53164 h 27.25455 c 9.39212,0 17.00708,-7.526279 17.00708,-16.806616 -0.004,-9.28176 -7.629,-16.805018 -17.02165,-16.805018 h -30.90626 c -4.53034,0 -10.06976,3.158194 -12.32106,7.012857 l -25.29648,43.409297 c -3.3782,5.78964 -11.70438,10.5311 -18.48248,10.5311 H 82.29914 C 57.733614,125.70062 37.802747,106.01518 37.795283,81.733818 37.781066,57.468099 57.694339,37.795276 82.26182,37.795276 l 46.5547,0.01422 -15.7405,26.938214 z"
     style="fill:#009035;fill-rule:evenodd;stroke-width:1.77716148"
     id="path2" />
  <g
     id="Layer1000"
     style="fill:#000000"
     transform="matrix(1.7771615,0,0,1.7771615,-326.03054,-547.60345)">
    <path
       d="m 220.6939,418.5818 -0.6891,-2.9469 c -2.2011,0.6247 -3.634,0.8858 -5.633,0.8858 -2.41,0 -4.3161,-1.514 -4.3161,-4.9138 v -4.7702 c 0,-3.507 1.9061,-4.9138 4.3161,-4.9138 1.999,0 3.4319,0.269 5.633,0.8917 l 0.6891,-2.9137 c -2.651,-0.7472 -4.2052,-0.9831 -6.3482,-0.9831 -4.29,0 -7.6878,2.8279 -7.6878,7.598 v 5.421 c 0,4.7679 3.3978,7.5969 7.6878,7.5969 2.143,0 3.6972,-0.2058 6.3482,-0.9519 z"
       style="fill:#000000;stroke:#1b1918;stroke-width:0.21600001;stroke-linecap:butt;stroke-linejoin:miter;stroke-dasharray:none"
       id="path4" />
    <path
       d="m 234.2177,411.6071 c 0,3.515 -1.8768,4.9451 -4.32,4.9451 -2.446,0 -4.3208,-1.4301 -4.3208,-4.9451 v -4.6729 c 0,-3.4291 1.8748,-4.9739 4.3208,-4.9739 2.4432,0 4.32,1.5448 4.32,4.9739 z m 3.3942,0.33 v -5.3328 c 0,-4.7342 -3.5161,-7.6581 -7.7142,-7.6581 -4.263,0 -7.717,2.9239 -7.717,7.6581 v 5.3328 c 0,4.767 3.454,7.6252 7.717,7.6252 4.1981,0 7.7142,-2.8582 7.7142,-7.6252 z"
       style="fill:#000000;stroke:#1b1918;stroke-width:0.21600001;stroke-linecap:butt;stroke-linejoin:miter;stroke-dasharray:none"
       id="path6" />
    <path
       d="m 261.2075,419.2987 -2.7391,-20.1172 h -4.2888 l -2.92,9.7132 -1.0111,4.3809 -1.014,-4.3809 -2.9231,-9.7132 h -4.2599 l -2.6521,20.1172 h 3.3412 l 1.4579,-11.6482 0.417,-4.4169 1.0151,4.4169 2.6189,8.695 h 3.992 l 2.6189,-8.695 1.0191,-4.4169 0.4459,4.4169 1.5171,11.6482 z"
       style="fill:#000000;stroke:#1b1918;stroke-width:0.21600001;stroke-linecap:butt;stroke-linejoin:miter;stroke-dasharray:none"
       id="path8" />
    <path
       d="m 274.6151,413.3357 c 0,1.7289 -0.9578,2.9529 -3.2499,2.9529 h -3.6341 v -5.9338 h 3.9011 c 2.268,0 2.9829,1.224 2.9829,2.9809 z m -0.7149,-8.492 c 0,1.614 -0.627,2.713 -2.772,2.713 h -3.3971 v -5.3651 h 3.1281 c 2.2059,0 3.041,1.0701 3.041,2.6521 z m 4.1091,8.492 c 0,-1.8181 -0.718,-3.5181 -3.0101,-4.6159 1.7869,-1.046 2.2921,-2.4171 2.2921,-3.8761 0,-3.1561 -2.3511,-5.662 -6.4321,-5.662 h -6.5259 v 20.117 h 7.0319 c 4.2599,0 6.6441,-2.6521 6.6441,-5.963 z"
       style="fill:#000000;stroke:#1b1918;stroke-width:0.21600001;stroke-linecap:butt;stroke-linejoin:miter;stroke-dasharray:none"
       id="path10" />
    <path
       d="m 292.1006,411.6071 c 0,3.515 -1.8791,4.9451 -4.318,4.9451 -2.446,0 -4.326,-1.4301 -4.326,-4.9451 v -4.6729 c 0,-3.4291 1.88,-4.9739 4.326,-4.9739 2.4389,0 4.318,1.5448 4.318,4.9739 z m 3.399,0.33 v -5.3328 c 0,-4.7342 -3.52,-7.6581 -7.717,-7.6581 -4.2639,0 -7.7171,2.9239 -7.7171,7.6581 v 5.3328 c 0,4.767 3.4532,7.6252 7.7171,7.6252 4.197,0 7.717,-2.8582 7.717,-7.6252 z"
       style="fill:#000000;stroke:#1b1918;stroke-width:0.21600001;stroke-linecap:butt;stroke-linejoin:miter;stroke-dasharray:none"
       id="path12" />
    <path
       d="m 302.315,399.182 h -3.39 v 20.1169 h 3.39 z"
       style="fill:#000000;stroke:#1b1918;stroke-width:0.21600001;stroke-linecap:butt;stroke-linejoin:miter;stroke-dasharray:none"
       id="path14" />
    <path
       d="m 317.7814,411.6071 c 0,3.515 -1.88,4.9451 -4.32,4.9451 -2.4432,0 -4.32,-1.4301 -4.32,-4.9451 v -4.6729 c 0,-3.4291 1.8768,-4.9739 4.32,-4.9739 2.44,0 4.32,1.5448 4.32,4.9739 z m 3.3959,0.33 v -5.3328 c 0,-4.7342 -3.513,-7.6581 -7.7159,-7.6581 -4.2622,0 -7.7202,2.9239 -7.7202,7.6581 v 5.3328 c 0,4.767 3.458,7.6252 7.7202,7.6252 4.2029,0 7.7159,-2.8582 7.7159,-7.6252 z"
       style="fill:#000000;stroke:#1b1918;stroke-width:0.21600001;stroke-linecap:butt;stroke-linejoin:miter;stroke-dasharray:none"
       id="path16" />
    <path
       d="m 336.6689,413.694 c 0,-3.721 -2.6521,-5.061 -4.9479,-5.9919 -0.5652,-0.235 -1.1041,-0.4181 -1.637,-0.6531 -1.3992,-0.591 -2.5002,-1.2529 -2.5002,-2.738 0,-1.3419 1.0092,-2.3879 3.0671,-2.3879 1.5801,0 2.979,0.387 4.794,0.98 l 0.894,-2.8551 c -1.874,-0.6539 -3.7179,-1.1299 -5.688,-1.1299 -3.6371,0 -6.4669,2.0889 -6.4669,5.4499 0,4.1689 3.3389,4.974 6.3759,6.3162 1.3709,0.6298 2.6859,1.37 2.6859,3.039 0,1.6999 -1.4678,2.7978 -3.282,2.7978 -1.669,0 -3.2788,-0.4079 -5.6029,-1.0979 l -0.65,2.952 c 2.1101,0.6829 3.9311,1.1588 6.2529,1.1588 3.4571,0 6.7051,-1.9357 6.7051,-5.8399 z"
       style="fill:#000000;stroke:#1b1918;stroke-width:0.21600001;stroke-linecap:butt;stroke-linejoin:miter;stroke-dasharray:none"
       id="path18" />
    <path
       d="m 359.1524,412.2376 c 0,2.827 -1.222,4.051 -3.899,4.051 h -3.5802 v -13.707 c 0.8932,-0.271 2.325,-0.659 3.5802,-0.659 2.2609,0 3.899,1.5539 3.899,4.2919 z m 3.4288,0.3291 v -6.7102 c 0,-4.1108 -3.3369,-6.9378 -7.3278,-6.9378 -2.357,0 -4.504,0.7109 -6.9752,1.6339 v 18.7461 h 6.9752 c 4.555,0 7.3278,-2.6521 7.3278,-6.732 z"
       style="fill:#000000;stroke:#1b1918;stroke-width:0.21600001;stroke-linecap:butt;stroke-linejoin:miter;stroke-dasharray:none"
       id="path20" />
    <path
       d="m 377.621,419.2987 v -3.0101 h -5.6588 c -1.9091,0 -3.1292,-1.253 -3.1292,-2.9529 0,-1.635 1.0131,-2.9812 3.1292,-2.9812 h 5.241 l 0.091,-2.7978 h -5.2152 c -2.145,0 -3.0969,-1.254 -3.0969,-2.713 0,-1.582 0.8289,-2.651 3.066,-2.651 h 5.5729 v -3.0112 h -5.5729 c -4.2001,0 -6.4681,2.5061 -6.4681,5.6622 0,1.6718 0.9292,3.0988 2.628,4.1119 -1.7878,1.046 -2.7748,2.592 -2.7748,4.3801 0,3.3109 2.535,5.963 6.529,5.963 z"
       style="fill:#000000;stroke:#1b1918;stroke-width:0.21600001;stroke-linecap:butt;stroke-linejoin:miter;stroke-dasharray:none"
       id="path22" />
    <path
       d="m 399.3007,405.3202 c 0,2.0299 -0.8938,3.1958 -2.6229,3.1958 h -3.784 v -6.3239 h 3.784 c 1.7291,0 2.6229,1.1379 2.6229,3.1281 z m 3.395,0 c 0,-3.3032 -2.1759,-6.1382 -6.0179,-6.1382 h -7.1791 v 20.1169 h 3.3951 v -7.8669 h 3.784 c 3.842,0 6.0179,-2.8299 6.0179,-6.1118 z"
       style="fill:#000000;stroke:#1b1918;stroke-width:0.21600001;stroke-linecap:butt;stroke-linejoin:miter;stroke-dasharray:none"
       id="path24" />
    <path
       d="m 416.9619,411.6071 c 0,3.515 -1.872,4.9451 -4.318,4.9451 -2.446,0 -4.3231,-1.4301 -4.3231,-4.9451 v -4.6729 c 0,-3.4291 1.8771,-4.9739 4.3231,-4.9739 2.446,0 4.318,1.5448 4.318,4.9739 z m 3.3939,0.33 v -5.3328 c 0,-4.7342 -3.5149,-7.6581 -7.7119,-7.6581 -4.263,0 -7.717,2.9239 -7.717,7.6581 v 5.3328 c 0,4.767 3.454,7.6252 7.717,7.6252 4.197,0 7.7119,-2.8582 7.7119,-7.6252 z"
       style="fill:#000000;stroke:#1b1918;stroke-width:0.21600001;stroke-linecap:butt;stroke-linejoin:miter;stroke-dasharray:none"
       id="path26" />
    <path
       d="m 433.4374,405.0792 c 0,1.7941 -1.0428,2.9812 -2.889,2.9812 h -3.517 v -5.868 h 3.517 c 1.8462,0 2.889,1.1659 2.889,2.8868 z m 3.8132,14.2192 -4.2571,-8.703 c 2.38,-0.892 3.839,-3.039 3.839,-5.5162 0,-3.2737 -2.5631,-5.8969 -6.2841,-5.8969 h -6.9149 v 20.1161 h 3.3979 v -8.314 h 2.685 l 3.9311,8.314 z"
       style="fill:#000000;stroke:#1b1918;stroke-width:0.21600001;stroke-linecap:butt;stroke-linejoin:miter;stroke-dasharray:none"
       id="path28" />
    <path
       d="m 453.335,399.1817 h -14.5389 v 3.0102 h 5.5729 v 17.107 h 3.3979 v -17.107 h 5.392 z"
       style="fill:#000000;stroke:#1b1918;stroke-width:0.21600001;stroke-linecap:butt;stroke-linejoin:miter;stroke-dasharray:none"
       id="path30" />
    <path
       d="m 470.4032,412.5667 v -13.413 h -3.3959 v 13.0839 c 0,2.7691 -1.607,4.263 -3.8441,4.263 -2.266,0 -3.903,-1.4939 -3.903,-4.263 v -13.0839 h -3.3939 v 13.413 c 0,4.138 3.2791,6.967 7.2969,6.967 3.964,0 7.24,-2.829 7.24,-6.967 z"
       style="fill:#000000;stroke:#1b1918;stroke-width:0.21600001;stroke-linecap:butt;stroke-linejoin:miter;stroke-dasharray:none"
       id="path32" />
    <path
       d="m 488.0985,418.433 v -9.8961 h -5.5999 v 2.3009 l 2.2961,0.2041 v 5.15 c -0.9862,0.1831 -2.1121,0.3291 -3.399,0.3291 -2.4112,0 -4.322,-1.4851 -4.322,-4.9141 v -4.7699 c 0,-3.3321 1.9108,-4.9141 4.322,-4.9141 1.91,0 3.575,0.3299 5.6908,0.928 l 0.7742,-2.8641 c -2.7091,-0.7469 -4.347,-1.069 -6.4911,-1.069 -4.2959,0 -7.689,2.827 -7.689,7.598 v 5.421 c 0,4.767 3.3931,7.5971 7.689,7.5971 2.1441,0 4.3801,-0.39 6.7289,-1.1009 z"
       style="fill:#000000;stroke:#1b1918;stroke-width:0.21600001;stroke-linecap:butt;stroke-linejoin:miter;stroke-dasharray:none"
       id="path34" />
    <path
       d="m 502.5478,410.7409 h -6.078 l 3.039,-8.9961 z m 6.317,8.558 -7.1169,-20.1169 h -4.447 l -7.113,20.1169 h 3.4231 l 1.967,-5.8458 h 7.8698 l 1.961,5.8458 z"
       style="fill:#000000;stroke:#1b1918;stroke-width:0.21600001;stroke-linecap:butt;stroke-linejoin:miter;stroke-dasharray:none"
       id="path36" />
    <path
       d="m 523.6132,416.2888 h -9.114 v -17.1071 h -3.3998 v 20.1172 h 12.2468 z"
       style="fill:#000000;stroke:#1b1918;stroke-width:0.21600001;stroke-linecap:butt;stroke-linejoin:miter;stroke-dasharray:none"
       id="path38" />
  </g>
</svg>
