<?xml version="1.0" encoding="UTF-8" standalone="no"?>
<svg
   xmlns:dc="http://purl.org/dc/elements/1.1/"
   xmlns:cc="http://creativecommons.org/ns#"
   xmlns:rdf="http://www.w3.org/1999/02/22-rdf-syntax-ns#"
   xmlns:svg="http://www.w3.org/2000/svg"
   xmlns="http://www.w3.org/2000/svg"
   version="1.1"
   id="svg2"
   xml:space="preserve"
   width="17cm"
   height="6.8462472cm"
   viewBox="0 0 642.51969 258.7558"><metadata
     id="metadata8"><rdf:RDF><cc:Work
         rdf:about=""><dc:format>image/svg+xml</dc:format><dc:type
           rdf:resource="http://purl.org/dc/dcmitype/StillImage" /><dc:title></dc:title></cc:Work></rdf:RDF></metadata><defs
     id="defs6" /><g
     id="g10"
     transform="matrix(1.6070554,0,0,-1.6070554,-52.18781,357.51786)"><g
       id="g12"
       transform="scale(0.1)"><path
         d="m 2182.1721,1432.3344 -7.504,-76.27 c -19.996,8.77 -44.242,14.387 -53.133,14.387 -17.391,0 -30.277,-8.242 -39.168,-17.824 -8.887,-9.578 -15.019,-27.52 -18.375,-53.809 h 67.598 l -12.16,-74.121 h -66.414 l -46.547,-358.73833 h -88.4378 l 46.2539,358.73833 h -78.7891 l 10.9766,74.121 h 68.4922 l 5.0351,28.164 c 2.7656,14.426 5.8789,27.141 9.3399,38.106 3.4531,10.957 9.6762,22.843 18.6762,35.578 8.992,12.742 21.89,23.465 38.695,32.156 16.797,8.699 38.25,13.047 64.34,13.047 11.261,0 21.742,-0.781 31.422,-2.371 9.683,-1.574 36.25,-7.793 49.699,-11.164"
         style="fill:#25508b;fill-opacity:1;fill-rule:nonzero;stroke:none"
         id="path14" /><path
         d="m 2264.8941,987.0214 c -40.335,0 -72.402,7.512 -95.296,22.332 -22.875,14.797 -38.633,32.668 -46.852,53.125 -8.316,20.696 -12.531,41.449 -12.531,61.723 0,30.379 7.004,58.863 20.832,84.676 13.82,25.793 33.199,46.554 57.629,61.711 24.414,15.144 52.351,22.82 83.039,22.82 22.922,0 44.136,-4.973 63.082,-14.785 18.844,-9.754 34.137,-24.922 45.433,-45.028 11.356,-20.187 17.106,-45.429 17.106,-75.011 0,-13.196 -1.227,-27.012 -3.656,-41.114 h -191.434 v -3.054 c 0,-43.535 21.68,-65.617 64.43,-65.617 20.57,0 39.265,2.429 55.57,7.246 14.895,4.386 32.594,10.675 52.668,18.718 l -13.652,-66.929 c -20.235,-8.086 -36.672,-13.625 -48.871,-16.457 -12.43,-2.891 -28.411,-4.356 -47.497,-4.356 z m 5.04,244.59 c -15.188,0 -27.344,-6.047 -36.118,-17.988 -8.316,-11.317 -16.175,-26.375 -23.355,-44.727 l -1.629,-4.18 h 99.148 v 3.055 c 0,1.313 0.039,2.57 0.137,3.789 0.102,1.352 0.156,3.379 0.156,5.996 0,35.879 -12.894,54.055 -38.339,54.055"
         style="fill:#25508b;fill-opacity:1;fill-rule:nonzero;stroke:none"
         id="path16" /><path
         d="m 2407.2151,992.3534 44.156,295.711 h 91.684 l -7.25,-50.445 6.898,8.262 c 26.348,31.543 49.902,47.527 69.996,47.527 10.414,0 19.789,-2.578 27.871,-7.684 7.891,-4.98 16.41,-11.957 25.352,-20.715 l -43.125,-88.457 c -4.688,7.43 -9.84,13.973 -15.344,19.485 -7.098,7.078 -16.199,10.672 -27.074,10.672 -20.453,0 -39.293,-14.571 -56,-43.328 l -0.297,-0.508 -25.207,-170.52 h -91.66"
         style="fill:#25508b;fill-opacity:1;fill-rule:nonzero;stroke:none"
         id="path18" /><path
         d="m 2792.6761,987.0214 c -12.621,0 -25.125,2.278 -37.184,6.77 -11.883,4.422 -22.918,12.742 -32.812,24.722 -11.746,13.832 -17.68,32.317 -17.68,54.985 0,10.242 1.078,21.121 3.207,32.343 l 21.133,114.215 h -55.762 l 12.238,68.008 h 56.301 l 11.567,60.207 h 93.398 l -11.559,-60.207 h 60.113 l -14.417,-68.008 h -58.438 l -20.351,-100.886 c -1.621,-8.457 -2.438,-15.235 -2.438,-20.176 0,-23.352 13.758,-28.25 25.293,-28.25 15.352,0 33.82,7.5 54.961,22.293 l -5.133,-83.262 c -26.078,-15.098 -53.797,-22.754 -82.437,-22.754"
         style="fill:#25508b;fill-opacity:1;fill-rule:nonzero;stroke:none"
         id="path20" /><path
         d="m 3003.7161,987.0214 c -20.6,0 -39.04,5.828 -54.83,17.344 -15.89,11.57 -28.33,27.273 -36.96,46.66 -8.68,19.473 -13.08,40.996 -13.08,63.984 0,19.161 3.19,39.051 9.5,59.114 6.26,19.961 17.62,39.336 33.77,57.605 16.09,18.223 39.18,33.211 68.63,44.531 29.56,11.387 66.6,17.149 110.09,17.149 18.31,0 33.56,-0.692 45.3,-2.051 11.43,-1.34 27.52,-3.664 47.87,-6.926 l -44.8,-292.078 h -91.88 l 5.61,32.246 -6.53,-5.73 c -11.23,-9.887 -22.27,-17.785 -32.78,-23.481 -10.27,-5.554 -23.7,-8.367 -39.91,-8.367 z m 88.65,239.863 c -18.33,0 -35.32,-5.273 -50.5,-15.664 -15.1,-10.339 -27.07,-24.5 -35.57,-42.109 -8.46,-17.52 -12.76,-36.738 -12.76,-57.07 0,-14.231 3.69,-26.555 10.96,-36.621 7.49,-10.379 18.3,-15.645 32.13,-15.645 6.7,0 14.32,1.719 22.66,5.109 8.14,3.329 18.64,9.161 31.19,17.325 l 1.15,0.742 22.69,143.933 h -21.95"
         style="fill:#25508b;fill-opacity:1;fill-rule:nonzero;stroke:none"
         id="path22" /><path
         d="m 3352.8561,849.73637 c -22.87,0 -43.61,1.04688 -61.62,3.09766 -17.81,2.03125 -33.5,5.75 -46.64,11.05464 -12.85,5.1954 -22.93,12.6836 -29.96,22.2657 -7,9.4804 -10.53,21.7343 -10.53,36.4258 0,27.8592 21.93,49.32423 65.21,63.82823 l 6.48,2.148 -5.93,3.399 c -10.73,6.133 -19.51,12.82 -26.11,19.89 -6.25,6.692 -9.42,16.258 -9.42,28.45 0,26.941 20.39,43.023 62.33,49.16 l 10.9,1.601 -10.16,4.239 c -17.27,7.214 -30.88,19.578 -40.47,36.765 -9.68,17.356 -14.59,34.856 -14.59,52.031 0,11.055 2.14,22.747 6.36,34.715 4.17,11.899 11.34,23.293 21.28,33.918 9.92,10.586 23.17,19.207 39.37,25.617 16.26,6.454 36.39,9.723 59.81,9.723 h 176.15 l -8.62,-61.18 h -44.33 l 1.4,-4.05 c 5.2,-15.024 7.84,-29.055 7.84,-41.7 0,-19.894 -4.84,-37.804 -14.38,-53.253 -9.51,-15.411 -24.06,-27.571 -43.27,-36.161 -19.36,-8.695 -43.34,-13.086 -71.24,-13.086 h -17.5 c -10.15,0 -18.38,-1.73 -24.47,-5.136 -6.64,-3.735 -10,-9.211 -10,-16.301 0,-5.859 1.8,-10.383 5.35,-13.438 3.3,-2.851 9.98,-5.418 21,-8.078 10.44,-2.5 28.14,-6.043 52.64,-10.543 68.37,-12.687 103.06,-41.308 103.06,-85.07003 0,-14.2265 -3.57,-28.164 -10.62,-41.4062 -6.95,-13.0352 -21.63,-24.5625 -43.6,-34.207 -22.24,-9.76958 -54.43,-14.7188 -95.72,-14.7188 z m -28.42,111.555 c -14.61,-5.891 -24.3,-10.715 -29.63,-14.7855 -5.81,-4.4531 -8.76,-10.3047 -8.76,-17.3945 0,-10.2617 6.01,-17.7422 17.83,-22.2734 10.89,-4.1719 28.16,-6.2891 51.34,-6.2891 23.21,0 38.72,2.0391 47.43,6.2383 9.32,4.4805 14.04,10.9844 14.04,19.3555 0,10.496 -5.33,18.0859 -15.44,21.9726 -9.31,3.5861 -27.82,7.0901 -56.61,10.7031 l -19.44,2.773 z m 52.14,275.68303 c -18,0 -30.74,-7.519 -37.89,-22.343 -6.79,-14.106 -10.24,-27.579 -10.24,-40.032 0,-13.996 3.88,-25.125 11.52,-33.086 7.68,-8.015 17.11,-12.07 28.01,-12.07 17.15,0 29.59,7.031 36.95,20.906 7.01,13.227 10.59,27.473 10.59,42.336 0,13.953 -3.46,24.914 -10.27,32.571 -6.91,7.769 -16.56,11.718 -28.67,11.718"
         style="fill:#25508b;fill-opacity:1;fill-rule:nonzero;stroke:none"
         id="path24" /><path
         d="m 3617.8561,987.0214 c -20.35,0 -36.68,4.707 -48.52,14.016 -11.93,9.375 -20.37,20.926 -25.09,34.344 -4.81,13.652 -7.24,27.168 -7.24,40.195 0,6.144 0.99,17.18 2.94,32.812 l 26.58,179.676 h 91.98 l -26.76,-184.781 c -0.43,-2.481 -0.63,-6.035 -0.63,-10.805 0,-26.051 15.2,-31.519 27.95,-31.519 10.86,0 21.61,3.562 31.97,10.593 9.94,6.766 23.64,18.36 40.69,34.414 l 0.78,0.735 26.46,181.363 h 92.83 l -44.15,-295.711 h -92.27 l 5.53,38.75 -24.01,-16.765 c -7.98,-5.586 -15.54,-10.207 -22.46,-13.735 -6.8,-3.433 -15.38,-6.597 -25.52,-9.39 -10.08,-2.786 -20.53,-4.192 -31.06,-4.192"
         style="fill:#25508b;fill-opacity:1;fill-rule:nonzero;stroke:none"
         id="path26" /><path
         d="m 3957.7961,987.0214 c -9.84,0 -24.16,1.828 -42.56,5.418 -17.65,3.457 -36.29,10.141 -55.42,19.875 l 11.65,63.184 c 20.13,-8.137 36.06,-14.207 47.39,-18.086 12.12,-4.141 25.22,-6.238 38.94,-6.238 8.81,0 15.81,2.136 20.8,6.367 5.15,4.336 7.76,9.39 7.76,15.066 0,6.809 -3.48,13.406 -10.35,19.609 -6.33,5.743 -18.38,15.168 -36.85,28.809 -16.3,12.41 -30.13,25.664 -41.09,39.324 -10.67,13.325 -16.08,28.489 -16.08,45.09 0,22.942 9.5,43.535 28.25,61.231 18.79,17.746 46.66,26.738 82.85,26.738 19.34,0 36.32,-2.395 50.47,-7.109 13.77,-4.59 28.6,-11.114 44.12,-19.422 l -6.75,-64.778 c -13.73,6.621 -28.81,12.707 -44.92,18.106 -17.9,5.996 -32.34,9.031 -42.92,9.031 -19.2,0 -23.22,-9.234 -23.22,-16.98 0,-6.122 2.33,-11.707 6.9,-16.622 4.23,-4.539 11.03,-10.058 20.8,-16.875 9.39,-6.55 17.91,-13.027 25.27,-19.238 19.57,-16.277 32.83,-31.023 39.43,-43.84 6.57,-12.75 9.89,-24.84 9.89,-35.957 0,-14.215 -4.24,-28.711 -12.62,-43.086 -8.38,-14.363 -21.3,-26.343 -38.41,-35.613 -17.17,-9.297 -38.47,-14.004 -63.33,-14.004"
         style="fill:#25508b;fill-opacity:1;fill-rule:nonzero;stroke:none"
         id="path28" /><path
         d="m 889.117,1143.47 372.503,50 c 0,0 45,2.5 62.5,-17.5 17.5,-20 93.75,-100 126.25,-177.501 10,-36.25 -8.75,-71.25 -41.25,-72.5 -32.5,-1.25 -680.003,-17.5 -680.003,-17.5 0,0 -28.75,-2.5 -28.75,-22.5 0,-20 23.75,-18.75 23.75,-18.75 l 777.503,2.5 c 0,0 88.75,3.75 112.5,12.5 23.75,8.75 78.75,46.25 35,125.001 -43.75,78.75 -95.98,160.72 -128.75,180 -42.5,25 -97.5,36.25 -131.25,41.25 -33.75,5 -88.75,7.5 -147.5,0 -58.75,-7.5 -358.753,-52.5 -358.753,-52.5 0,0 -31.25,-5 -31.25,-22.5 0,-17.5 37.5,-10 37.5,-10"
         style="fill:#25508b;fill-opacity:1;fill-rule:nonzero;stroke:none"
         id="path30" /><path
         d="m 1278.28,1309.77 c 0,0.68 0.06,1.27 0.01,2.03 l -43.74,489.14 c -1.81,25.71 -24.12,45.07 -49.84,43.26 -25.71,-1.82 -45.08,-24.13 -43.27,-49.84 l 5.72,-80.58 c -30.35,-23.21 -91.39,-69.87 -159.918,-122.13 l -263.887,239.46 8.153,108.21 c 1.933,25.7 -17.328,48.11 -43.028,50.04 -25.703,1.93 -48.105,-17.33 -50.042,-43.02 L 560.059,905.945 c -1.934,-25.703 17.328,-48.093 43.031,-50.039 25.699,-1.929 48.101,17.328 50.047,43.032 L 677.27,1219.33 985,1467.65 1200.39,1272.2 c 19.08,-17.33 48.59,-15.93 65.92,3.14 8.87,9.76 12.77,22.23 11.97,34.43 z m -590.01,55.58 26.199,347.78 197.273,-179.01 C 817.246,1462.19 724.41,1391.82 688.27,1365.35 Z m 466.62,239.4 12.51,-176.57 -108.88,98.8 z"
         style="fill:#e55053;fill-opacity:1;fill-rule:nonzero;stroke:none"
         id="path32" /></g></g></svg>