<?xml version="1.0" encoding="UTF-8" standalone="no"?>
<!-- Created with Inkscape (http://www.inkscape.org/) by Marsupilami -->

<svg
   xmlns:dc="http://purl.org/dc/elements/1.1/"
   xmlns:cc="http://creativecommons.org/ns#"
   xmlns:rdf="http://www.w3.org/1999/02/22-rdf-syntax-ns#"
   xmlns:svg="http://www.w3.org/2000/svg"
   xmlns="http://www.w3.org/2000/svg"
   xmlns:sodipodi="http://sodipodi.sourceforge.net/DTD/sodipodi-0.dtd"
   xmlns:inkscape="http://www.inkscape.org/namespaces/inkscape"
   width="16.999941cm"
   height="7.4086099cm"
   viewBox="0 0 16.999942 7.40861"
   id="svg41682"
   sodipodi:version="0.32"
   inkscape:version="0.92.3pre0 (0ab9bec, 2018-03-03)"
   version="1.0"
   sodipodi:docname="MetroLisboa.svg"
   inkscape:output_extension="org.inkscape.output.svg.inkscape">
  <defs
     id="defs41684" />
  <sodipodi:namedview
     id="base"
     pagecolor="#ffffff"
     bordercolor="#666666"
     borderopacity="1.0"
     gridtolerance="10000"
     guidetolerance="10"
     objecttolerance="10"
     inkscape:pageopacity="0.0"
     inkscape:pageshadow="2"
     inkscape:zoom="1"
     inkscape:cx="207.28162"
     inkscape:cy="59.146512"
     inkscape:document-units="cm"
     inkscape:current-layer="layer1"
     showgrid="false"
     inkscape:window-width="1280"
     inkscape:window-height="702"
     inkscape:window-x="44"
     inkscape:window-y="32"
     fit-margin-top="1"
     fit-margin-left="1"
     fit-margin-bottom="1"
     fit-margin-right="1"
     units="cm"
     inkscape:window-maximized="0" />
  <metadata
     id="metadata41687">
    <rdf:RDF>
      <cc:Work
         rdf:about="">
        <dc:format>image/svg+xml</dc:format>
        <dc:type
           rdf:resource="http://purl.org/dc/dcmitype/StillImage" />
        <dc:title></dc:title>
      </cc:Work>
    </rdf:RDF>
  </metadata>
  <g
     inkscape:label="Layer 1"
     inkscape:groupmode="layer"
     id="layer1"
     transform="translate(-277.9981,-961.67556)">
    <path
       style="fill:#283a97;fill-opacity:1;fill-rule:nonzero;stroke:none;stroke-width:0.10570358"
       d="m 284.33278,966.75985 v 1.0207 h 0.16186 v -1.0207 z m 4.36027,0 v 0.34354 c -0.035,-0.0196 -0.0835,-0.033 -0.13543,-0.033 -0.19846,0 -0.34024,0.15208 -0.34024,0.36005 0,0.22554 0.13398,0.36005 0.36006,0.36005 0.10372,0 0.18485,-0.0255 0.27747,-0.0562 v -0.97446 z m 3.21075,0 v 0.96785 c 0.0897,0.0431 0.17864,0.0628 0.28077,0.0628 0.22489,0 0.36006,-0.14336 0.36006,-0.37987 0,-0.21246 -0.11337,-0.34023 -0.3039,-0.34023 -0.0679,0 -0.13345,0.0227 -0.17507,0.0562 v -0.36666 z m -7.09866,0.0462 c -0.0569,0 -0.0925,0.0363 -0.0925,0.0925 0,0.0576 0.038,0.0991 0.0958,0.0991 0.0562,0 0.0958,-0.0415 0.0958,-0.0991 0,-0.0562 -0.0429,-0.0925 -0.0991,-0.0925 z m 6.15393,0 c -0.0569,0 -0.0958,0.0363 -0.0958,0.0925 0,0.0576 0.0415,0.0991 0.0991,0.0991 0.0563,0 0.0925,-0.0415 0.0925,-0.0991 0,-0.0562 -0.0395,-0.0925 -0.0958,-0.0925 z m -11.90817,0.003 -0.0528,0.97115 h 0.16516 l 0.033,-0.66725 0.24775,0.53182 h 0.11561 l 0.25105,-0.54503 0.0297,0.68046 h 0.17177 l -0.0528,-0.97114 h -0.17837 l -0.27417,0.60449 -0.28078,-0.60449 z m 11.12861,0 v 0.97115 h 0.57476 v -0.15195 h -0.39969 v -0.8192 z m -9.03105,0.0595 -0.16186,0.0363 v 0.17508 h -0.11561 v 0.12882 h 0.11561 v 0.34684 c 0,0.0634 0.003,0.13861 0.0595,0.18829 0.0366,0.0314 0.083,0.0462 0.14864,0.0462 0.0552,0 0.0992,-0.008 0.15195,-0.0264 l -0.0264,-0.11562 c -0.0394,0.0111 -0.0518,0.0132 -0.076,0.0132 -0.0386,0 -0.0636,-0.009 -0.076,-0.0231 -0.016,-0.0182 -0.0198,-0.0424 -0.0198,-0.13213 v -0.29729 h 0.15855 l 0.033,-0.12882 h -0.19159 z m 4.15217,0 -0.16186,0.0363 v 0.17508 h -0.11231 v 0.12882 h 0.11231 v 0.34684 c 0,0.0634 0.003,0.13861 0.0595,0.18829 0.0365,0.0314 0.0863,0.0462 0.15195,0.0462 0.0551,0 0.0959,-0.008 0.14864,-0.0264 3.8e-4,0 0.003,1.3e-4 0.003,0 l -0.0264,-0.11562 c -0.0392,0.0111 -0.0518,0.0132 -0.076,0.0132 -0.0387,0 -0.0636,-0.009 -0.076,-0.0231 -0.0161,-0.0182 -0.0231,-0.0424 -0.0231,-0.13213 v -0.29729 h 0.15855 l 0.0363,-0.12882 h -0.19489 z m -3.52786,0.2048 c -0.0884,0 -0.17824,0.0225 -0.27747,0.0661 v 0.64083 h 0.16186 v -0.54173 c 0.0211,-0.0108 0.0645,-0.0231 0.1024,-0.0231 0.0329,0 0.0563,0.002 0.1024,0.0132 l 0.033,-0.13543 c -0.0518,-0.0132 -0.0799,-0.0198 -0.12222,-0.0198 z m 0.49218,0 c -0.20572,0 -0.34023,0.14376 -0.34023,0.35675 0,0.21603 0.13622,0.36005 0.34353,0.36005 0.2019,0 0.33337,-0.14587 0.33363,-0.36005 0,-1.9e-4 -0.003,1.9e-4 -0.003,0 0,-0.20956 -0.13213,-0.35675 -0.33363,-0.35675 z m 0.78948,0 c -0.10505,0 -0.20018,0.0236 -0.2973,0.0727 v 0.93812 h 0.16186 v -0.33693 c 0.0416,0.03 0.10703,0.0495 0.15526,0.0495 0.19634,0 0.32371,-0.15208 0.32371,-0.37327 0,-0.22264 -0.12103,-0.35014 -0.34353,-0.35014 z m 0.78947,0 c -0.20573,0 -0.33693,0.14376 -0.33693,0.35675 0,0.21603 0.13292,0.36005 0.34023,0.36005 0.2019,0 0.33323,-0.14587 0.33363,-0.36005 0,-0.20956 -0.1353,-0.35675 -0.33693,-0.35675 z m 2.02819,0 c -0.10227,0 -0.18168,0.0272 -0.23123,0.0462 l 0.0396,0.12552 c 0.0723,-0.0271 0.13437,-0.0396 0.18828,-0.0396 0.081,0 0.11892,0.0367 0.11892,0.11561 v 0.0198 c -0.0132,-5.7e-4 -0.0202,0 -0.0297,0 -0.23149,0 -0.36005,0.0827 -0.36005,0.23453 0,0.13649 0.10887,0.21471 0.28408,0.21471 0.0888,0 0.16648,-0.0171 0.26756,-0.0562 v -0.37988 c 0,-0.1205 -0.0132,-0.17427 -0.0628,-0.21801 -0.0599,-0.0509 -0.13966,-0.0628 -0.21471,-0.0628 z m 0.74653,0 c -0.0949,0 -0.19027,0.0219 -0.28738,0.0694 v 0.63752 h 0.16186 v -0.54834 c 0.0408,-0.0137 0.0847,-0.0198 0.12552,-0.0198 0.0417,0 0.0794,0.0135 0.0991,0.033 0.0307,0.0314 0.0264,0.11786 0.0264,0.15855 v 0.37657 h 0.16186 v -0.43933 c 0,-0.12182 -0.026,-0.17164 -0.0859,-0.21471 -0.0504,-0.0373 -0.1176,-0.0529 -0.2015,-0.0529 z m 0.75644,0 c -0.20559,0 -0.33693,0.14376 -0.33693,0.35675 0,0.21603 0.13292,0.36005 0.34023,0.36005 0.2019,0 0.33337,-0.14587 0.33363,-0.36005 0,-0.20956 -0.1353,-0.35675 -0.33693,-0.35675 z m 1.96873,0 c -0.19767,0 -0.32702,0.14442 -0.32702,0.36336 0,0.21603 0.12592,0.35344 0.32372,0.35344 0.0986,0 0.19013,-0.032 0.26095,-0.0991 l -0.076,-0.0991 c -0.0562,0.0424 -0.11509,0.0628 -0.17177,0.0628 -0.10161,0 -0.1645,-0.0679 -0.17177,-0.18168 h 0.44924 c 0.002,-0.0354 0.003,-0.0451 0.003,-0.0595 0,-0.2085 -0.109,-0.34023 -0.29068,-0.34023 z m 2.18014,0 c -0.15922,0 -0.27417,0.085 -0.27417,0.2081 0,0.0421 0.0172,0.0811 0.0429,0.10901 0.033,0.0472 0.0876,0.0735 0.18168,0.1057 0.0884,0.03 0.11891,0.0507 0.11891,0.0925 0,0.04 -0.04,0.0694 -0.11231,0.0694 -0.0547,0 -0.12816,-0.0199 -0.2048,-0.0595 l -0.0595,0.12883 c 0.0914,0.0445 0.17825,0.0628 0.27748,0.0628 0.16608,0 0.27033,-0.0801 0.27086,-0.21471 0,-1.9e-4 0.003,1.9e-4 0.003,0 0,-0.0972 -0.0595,-0.15406 -0.18167,-0.2015 -0.0103,-0.005 -0.0576,-0.0223 -0.0694,-0.0264 -0.0716,-0.0255 -0.1024,-0.0394 -0.1024,-0.076 0,-0.038 0.0396,-0.0661 0.10901,-0.0661 0.0526,0 0.0982,0.008 0.16516,0.0363 l 0.0429,-0.12883 c -0.0855,-0.0268 -0.14098,-0.0396 -0.2081,-0.0396 z m 1.47654,0 c -0.20586,0 -0.34023,0.14376 -0.34023,0.35675 0,0.21603 0.13305,0.36005 0.34023,0.36005 0.2019,0 0.33667,-0.14587 0.33693,-0.36005 0,-1.9e-4 -0.003,1.9e-4 -0.003,0 0,-0.20956 -0.13226,-0.35675 -0.33363,-0.35675 z m 0.72011,0 c -0.10227,0 -0.18498,0.0272 -0.23453,0.0462 l 0.0429,0.12552 c 0.0723,-0.0271 0.13424,-0.0396 0.18829,-0.0396 0.081,0 0.11891,0.0367 0.11891,0.11561 l -0.003,0.0198 c -0.0132,-5.7e-4 -0.0201,0 -0.0297,0 -0.23123,0 -0.36005,0.0827 -0.36005,0.23453 0,0.13649 0.10887,0.21471 0.28408,0.21471 0.089,0 0.16621,-0.0167 0.26756,-0.0562 h 0.003 v -0.37988 c 0,-0.1205 -0.0165,-0.17427 -0.0661,-0.21801 -0.0599,-0.0509 -0.13623,-0.0628 -0.21141,-0.0628 z m -13.23607,0.003 c -0.19754,0 -0.32702,0.14138 -0.32702,0.36006 0,0.21576 0.12618,0.35344 0.32371,0.35344 0.0984,0 0.18684,-0.0321 0.25766,-0.0991 l -0.076,-0.0991 c -0.056,0.0424 -0.11495,0.0628 -0.17177,0.0628 -0.10134,0 -0.1645,-0.068 -0.17177,-0.18168 h 0.44594 c 0.002,-0.0353 0.003,-0.0452 0.003,-0.0595 -1.3e-4,-0.2048 -0.10266,-0.33693 -0.28407,-0.33693 z m 4.23805,0.003 v 0.69698 h 0.16186 v -0.69698 z m 6.15393,0 v 0.69698 h 0.16186 v -0.69698 z m -10.40189,0.12552 c 0.0744,0 0.12288,0.0546 0.12882,0.14204 h -0.27417 c 0.0132,-0.0839 0.0696,-0.14204 0.14535,-0.14204 z m 8.10284,0 c 0.0436,-5.7e-4 0.0828,0.0118 0.11561,0.033 v 0.39968 c -0.0423,0.0139 -0.0595,0.0165 -0.0958,0.0165 -0.12698,0 -0.21141,-0.0887 -0.21141,-0.22793 0,-0.13212 0.0768,-0.22131 0.19159,-0.22131 z m 0.75974,0 c 0.0745,0 0.11984,0.0546 0.12553,0.14204 h -0.27087 c 0.0132,-0.0839 0.0695,-0.14204 0.14534,-0.14204 z m 2.88373,0 c 0.0917,-5.7e-4 0.15168,0.0768 0.15195,0.2048 0,0.15472 -0.0735,0.24114 -0.19159,0.24114 -0.0402,0 -0.0761,-0.004 -0.11561,-0.0198 v -0.19489 c 0,-0.12037 0.008,-0.15063 0.0396,-0.18498 0.0256,-0.0285 0.0704,-0.0462 0.11561,-0.0462 z m -9.95266,0.007 c 0.0961,0 0.1649,0.0847 0.16517,0.22132 v 0.003 c 0,0.13424 -0.0707,0.21802 -0.16847,0.21802 -0.0992,0 -0.16846,-0.0855 -0.16846,-0.21471 0,-0.14231 0.0674,-0.22793 0.17176,-0.22793 z m 0.78287,0 c 0.11535,0 0.17507,0.076 0.17507,0.21471 0,0.14733 -0.0657,0.22793 -0.17507,0.22793 -0.0591,0 -0.1028,-0.0301 -0.11891,-0.076 -0.008,-0.0235 -0.0132,-0.0568 -0.0132,-0.1123 v -0.23123 c 0.0439,-0.0161 0.0861,-0.0231 0.13213,-0.0231 z m 0.79608,0 c 0.0962,0 0.16477,0.0847 0.16516,0.22132 v 0.003 c 0,0.13424 -0.0707,0.21802 -0.16846,0.21802 -0.0992,0 -0.16847,-0.0855 -0.16847,-0.21471 0,-0.14231 0.0675,-0.22793 0.17177,-0.22793 z m 3.53116,0 c 0.0962,0 0.16464,0.0847 0.16517,0.22132 v 0.003 c 0,0.13424 -0.0674,0.21802 -0.16517,0.21802 -0.0994,0 -0.17177,-0.0855 -0.17177,-0.21471 0,-0.14231 0.0675,-0.22793 0.17177,-0.22793 z m 5.62542,0 c 0.0959,0 0.16489,0.0847 0.16516,0.22132 v 0.003 c 0,0.13424 -0.0708,0.21802 -0.16847,0.21802 -0.0994,0 -0.16846,-0.0855 -0.16846,-0.21471 0,-0.14231 0.0674,-0.22793 0.17177,-0.22793 z m -7.02929,0.24775 h 0.0132 v 0.18498 c -0.0329,0.0116 -0.0707,0.0198 -0.1057,0.0198 -0.0759,-7.6e-4 -0.12222,-0.038 -0.12222,-0.0892 -7.7e-4,-0.092 0.0966,-0.1156 0.21471,-0.1156 z m 7.84849,0 h 0.01 v 0.18498 c -0.0328,0.0116 -0.0706,0.0198 -0.1057,0.0198 -0.0759,-7.6e-4 -0.11892,-0.038 -0.11892,-0.0892 -5.7e-4,-0.092 0.0966,-0.1156 0.21471,-0.1156 z"
       id="path41574"
       inkscape:connector-curvature="0" />
    <path
       class="st0"
       d="m 288.12126,965.38237 v 1.0133 h 1.36975 v -1.12537 l -0.71445,0.45451 c 0,-7.6e-4 -0.40859,-0.23037 -0.6553,-0.34244"
       id="path6"
       inkscape:connector-curvature="0"
       style="fill:#ef5a35;stroke-width:0.00778266" />
    <path
       class="st0"
       d="m 289.03261,963.7449 c -0.0724,0 -0.11985,0.063 -0.11985,0.16888 0,0.0957 0.049,0.15877 0.11907,0.15877 0.0677,0 0.11596,-0.0623 0.11596,-0.16188 v -7.6e-4 c 0,-0.10118 -0.0475,-0.16499 -0.11518,-0.16499"
       id="path8"
       inkscape:connector-curvature="0"
       style="fill:#ef5a35;stroke-width:0.00778266" />
    <path
       class="st0"
       d="m 286.50558,963.29584 v 3.09983 h 1.09424 v -1.82036 c 0.45685,0.16888 1.17674,0.56502 1.17674,0.56502 l 0.71445,-0.45529 v -2.00948 c 0,0 -1.5791,0.049 -2.98543,0.62028 m 0.95027,0.8701 H 287.343 v -0.27706 c 0,-0.0444 -0.002,-0.0661 -0.004,-0.0856 -0.006,-0.0343 -0.0335,-0.0553 -0.0732,-0.0553 -0.0249,0 -0.0498,0.005 -0.0887,0.0218 0.006,0.0187 0.0101,0.0272 0.0101,0.0817 v 0.31442 h -0.11051 v -0.30508 c 0,-0.0467 -0.004,-0.0685 -0.0179,-0.0879 -0.0132,-0.0163 -0.0342,-0.0241 -0.0654,-0.0241 -0.0218,0 -0.0381,0.002 -0.0716,0.0132 v 0.4047 h -0.11285 v -0.47085 c 0.0669,-0.0358 0.13075,-0.0521 0.1899,-0.0521 0.0553,0 0.0981,0.014 0.13697,0.0428 0.0506,-0.0311 0.0926,-0.0428 0.1432,-0.0428 0.056,0 0.10663,0.0195 0.13698,0.0529 0.0272,0.0319 0.0397,0.0708 0.0397,0.14553 z m 0.5261,-0.22647 h -0.31442 c 0.005,0.0848 0.0498,0.1323 0.11986,0.1323 0.0374,0 0.0809,-0.014 0.11985,-0.0444 l 0.0545,0.0732 c -0.0498,0.049 -0.11363,0.0747 -0.1829,0.0747 -0.13853,0 -0.22569,-0.10351 -0.22569,-0.26383 0,-0.16266 0.0887,-0.26773 0.22959,-0.26773 0.12841,0 0.20157,0.0973 0.20157,0.25061 0,0.0101 -0.002,0.0195 -0.002,0.0451 m 0.28796,0.23504 c -0.0459,0 -0.0802,-0.0109 -0.10585,-0.0342 -0.0389,-0.0366 -0.0412,-0.0926 -0.0412,-0.14008 v -0.25605 h -0.0802 v -0.0949 h 0.0802 v -0.12996 l 0.11284,-0.0272 v 0.15721 h 0.13464 l -0.0241,0.0949 h -0.11052 v 0.22025 c 0,0.0661 0.004,0.0825 0.0148,0.0957 0.009,0.0109 0.0249,0.0179 0.0521,0.0179 0.0171,0 0.0257,-7.7e-4 0.0529,-0.009 l 0.0195,0.0856 c -0.0374,0.014 -0.0669,0.0195 -0.10506,0.0195 m 0.48252,-0.41715 c -0.0327,-0.009 -0.0475,-0.0101 -0.0708,-0.0101 -0.0265,0 -0.056,0.009 -0.07,0.0163 v 0.40159 h -0.11441 v -0.47396 c 0.0693,-0.0327 0.13153,-0.0475 0.19223,-0.0475 0.0304,0 0.0514,0.002 0.088,0.0125 z m 0.2794,0.41715 c -0.14398,0 -0.23815,-0.10662 -0.23815,-0.26695 0,-0.15798 0.0926,-0.26383 0.23659,-0.26383 0.14087,0 0.23582,0.1074 0.23582,0.26228 0,7.6e-4 0,7.6e-4 0,7.6e-4 0,0.15955 -0.0926,0.26773 -0.23426,0.26773"
       id="path10"
       inkscape:connector-curvature="0"
       style="fill:#ef5a35;stroke-width:0.00778266" />
    <path
       class="st0"
       d="m 287.77649,963.74101 c -0.0506,0 -0.0918,0.0412 -0.10118,0.10273 h 0.18989 c -0.005,-0.0646 -0.0374,-0.10273 -0.0887,-0.10273"
       id="path12"
       inkscape:connector-curvature="0"
       style="fill:#ef5a35;stroke-width:0.00778266" />
  </g>
</svg>
