<?xml version="1.0" encoding="UTF-8" standalone="no"?>
<svg
   xmlns:dc="http://purl.org/dc/elements/1.1/"
   xmlns:cc="http://creativecommons.org/ns#"
   xmlns:rdf="http://www.w3.org/1999/02/22-rdf-syntax-ns#"
   xmlns:svg="http://www.w3.org/2000/svg"
   xmlns="http://www.w3.org/2000/svg"
   version="1.1"
   id="svg2"
   xml:space="preserve"
   width="17cm"
   height="11.021314cm"
   viewBox="0 0 642.51967 416.55358"><metadata
     id="metadata8"><rdf:RDF><cc:Work
         rdf:about=""><dc:format>image/svg+xml</dc:format><dc:type
           rdf:resource="http://purl.org/dc/dcmitype/StillImage" /><dc:title></dc:title></cc:Work></rdf:RDF></metadata><defs
     id="defs6" /><g
     id="g10"
     transform="matrix(1.3333333,0,0,-1.3333333,37.795258,442.00792)"><g
       id="g12"
       transform="matrix(0.11665081,0,0,0.11665081,-2.1726275e-6,0)"><path
         d="m 887.816,2245.52 c -217.867,-1.76 -480.175,-46.08 -796.8941,-116.78 61.1091,32.96 398.4921,179.6 793.9571,203.61 395.551,23.94 718.391,23.94 1052.831,104.73 334.44,80.79 631.14,164.61 721.25,161.71 90.18,-3.02 107.67,-68.95 98.85,-134.79 -8.67,-65.81 5.88,-206.52 -340.17,-272.36 -346.12,-65.84 -802.69,-56.89 -1058.71,-3.02 -134.05,28.31 -282.98,58.41 -471.114,56.9"
         style="fill:#2e2b70;fill-opacity:1;fill-rule:nonzero;stroke:none"
         id="path14" /><path
         d="m 2743.34,2248.54 c -78.58,-62.86 -183.23,-119.72 -311.16,-200.55 -127.18,-80.31 -226.85,-199.08 -317.04,-317.37 -180.29,-236.37 -340.32,-616.6 -401.35,-885.932 -61.1,-269.504 -64.04,-302.422 -66.9,-356.262 -23.28,-41.981 -69.84,-68.856 -125.07,-68.856 -55.22,0 -95.91,36.016 -116.33,65.918 5.8,71.727 18.46,355.762 145.41,712.342 75.65,212.48 270.48,502.93 415.89,649.57 145.49,146.63 302.5,230.57 436.23,275.37 133.81,44.93 221.06,65.85 340.32,125.77"
         style="fill:#407cc8;fill-opacity:1;fill-rule:nonzero;stroke:none"
         id="path16" /><path
         d="m 605.742,2074.9 c 162.809,0 439.008,-17.97 581.558,-101.79 142.55,-83.85 226.86,-194.58 241.47,-377.11 14.55,-182.62 -29.16,-802.211 -98.92,-1107.574 8.74,299.32 14.54,646.584 -52.37,868.084 -66.9,221.51 -168.61,365.12 -302.417,371.17 -133.809,6 -629.102,-16.83 -793.95,11.97 C 26.8789,1766.56 9.47656,1793.52 0.738281,1859.4 -8.00391,1925.25 61.8398,2012.09 160.688,2036.02 c 98.847,23.89 282.16,38.88 445.054,38.88"
         style="fill:#2e2b70;fill-opacity:1;fill-rule:nonzero;stroke:none"
         id="path18" /><path
         d="m 2181.48,925.313 h 207.98 l 105.06,-338.934 h 1.38 l 110.04,338.934 h 200.14 V 415.398 h -129.23 l 2.21,391.622 h -1.48 L 2551.29,415.398 H 2429.9 L 2309.23,807.02 h -1.46 l 2.86,-391.622 h -129.15 v 509.915"
         style="fill:#2e2b70;fill-opacity:1;fill-rule:nonzero;stroke:none"
         id="path62" /><path
         d="m 2980,824.512 h -122.05 v 100.801 h 376.19 V 824.512 H 3112.02 V 415.477 H 2980 v 409.035"
         style="fill:#2e2b70;fill-opacity:1;fill-rule:nonzero;stroke:none"
         id="path64" /><path
         d="m 3290.91,541.125 c 33.99,-19.035 81.61,-33.664 136.26,-33.664 41.92,0 81.62,8.75 81.62,49.754 0,94.922 -234.22,34.961 -234.22,220.558 0,122.704 116.33,156.368 215.76,156.368 47.54,0 94.43,-7.364 127.76,-19.043 l -8.5,-105.137 c -34.14,16.016 -72.46,23.371 -110.04,23.371 -33.32,0 -88.71,-2.941 -88.71,-47.461 0,-82.59 234.2,-27.121 234.2,-211.176 0,-132.175 -107.91,-168.035 -217.87,-168.035 -46.15,0 -103.66,7.266 -147.69,21.973 l 11.43,112.492"
         style="fill:#2e2b70;fill-opacity:1;fill-rule:nonzero;stroke:none"
         id="path66" /></g></g></svg>