<?xml version="1.0" encoding="UTF-8" standalone="no"?>
<svg
   xmlns:dc="http://purl.org/dc/elements/1.1/"
   xmlns:cc="http://creativecommons.org/ns#"
   xmlns:rdf="http://www.w3.org/1999/02/22-rdf-syntax-ns#"
   xmlns:svg="http://www.w3.org/2000/svg"
   xmlns="http://www.w3.org/2000/svg"
   version="1.1"
   id="svg2"
   xml:space="preserve"
   width="17cm"
   height="9.9121075cm"
   viewBox="0 0 642.51969 374.63084"><metadata
     id="metadata8"><rdf:RDF><cc:Work
         rdf:about=""><dc:format>image/svg+xml</dc:format><dc:type
           rdf:resource="http://purl.org/dc/dcmitype/StillImage" /><dc:title></dc:title></cc:Work></rdf:RDF></metadata><defs
     id="defs6" /><g
     id="g10"
     transform="matrix(1.6599056,0,0,-1.6599056,37.795276,336.83557)"><g
       id="g12"
       transform="scale(0.1)"><path
         d="m 1667.42,900.789 c 68.6,0 124.31,-55.684 124.31,-124.273 0,-7.942 -0.79,-15.754 -2.21,-23.293 C 1719.12,325.918 1347.99,0 900.789,0 403.281,0 0,403.281 0,900.789 c 0,497.481 403.281,900.761 900.789,900.761 447.861,0 819.381,-326.84 889.091,-755.01 1.16,-6.95 1.85,-14.17 1.85,-21.49 0,-68.624 -55.71,-124.261 -124.31,-124.261"
         style="fill:#1b4d2e;fill-opacity:1;fill-rule:nonzero;stroke:none"
         id="path14" /><path
         d="m 1544.26,789.559 c 8.04,60.89 60.13,111.218 123.16,111.218 -62.99,0 -115.02,50.344 -123.16,111.073 -51.27,309.11 -319.82,541.26 -643.436,541.26 -360.351,0 -652.367,-292 -652.367,-652.333 0,-360.3 292.016,-652.347 652.367,-652.347 323.546,0 592.106,232.144 643.436,541.129"
         style="fill:#ffffff;fill-opacity:1;fill-rule:nonzero;stroke:none"
         id="path16" /><path
         d="m 323.121,900.789 c 0,93.973 76.207,170.171 170.238,170.171 93.938,0 170.141,-76.198 170.141,-170.171 0,-94.031 -76.203,-170.176 -170.141,-170.176 -94.031,0 -170.238,76.145 -170.238,170.176"
         style="fill:#f9b20d;fill-opacity:1;fill-rule:nonzero;stroke:none"
         id="path18" /><path
         d="m 725.641,900.789 c 0,93.973 76.246,170.171 170.242,170.171 93.902,0 170.167,-76.198 170.167,-170.171 0,-94.031 -76.265,-170.176 -170.167,-170.176 -93.996,0 -170.242,76.145 -170.242,170.176"
         style="fill:#b4db19;fill-opacity:1;fill-rule:nonzero;stroke:none"
         id="path20" /><path
         d="m 1128.2,900.789 c 0,93.973 76.21,170.171 170.2,170.171 93.94,0 170.18,-76.198 170.18,-170.171 0,-94.031 -76.24,-170.176 -170.18,-170.176 -93.99,0 -170.2,76.145 -170.2,170.176"
         style="fill:#4fb4e9;fill-opacity:1;fill-rule:nonzero;stroke:none"
         id="path22" /><path
         d="m 2840.27,539.98 c 0,3.133 -1.16,7.215 -3.4,11.243 l -171.36,285.984 c 82.79,29.434 146.38,95.359 146.38,202.893 v 13.19 c 0,179.52 -148.66,237.34 -341.6,237.34 -81.7,0 -178.21,-6.09 -230.41,-13.21 -35.18,-5.08 -51.09,-14.22 -51.09,-48.7 V 548.152 c 0,-11.172 10.21,-20.332 22.69,-20.332 h 147.58 c 12.42,0 22.67,9.16 22.67,20.332 V 805.77 c 21.54,0 56.74,-2.008 80.56,-2.008 l 12.55,0.957 152.02,-256.567 c 5.67,-10.144 10.21,-20.332 22.7,-20.332 h 173.7 c 12.48,0 17.01,5.11 17.01,12.16 m -221.31,500.12 c 0,-68.998 -37.48,-96.327 -156.67,-96.327 -12.45,0 -68.04,0.938 -80.56,2.028 v 194.739 c 13.57,0.97 72.58,2.96 88.56,2.96 95.29,0 148.67,-28.34 148.67,-90.21 v -13.19"
         style="fill:#1b4d2e;fill-opacity:1;fill-rule:evenodd;stroke:none"
         id="path24" /><path
         d="m 3415.43,553.223 v 94.297 c 0,11.171 -10.22,20.332 -22.7,20.332 h -195.15 c -53.44,0 -72.69,16.211 -72.69,68.925 v 524.413 c 0,11.14 -10.21,20.28 -22.69,20.28 h -148.66 c -12.52,0 -22.71,-9.14 -22.71,-20.28 V 736.777 c 0,-184.57 130.55,-218.047 276.9,-218.047 60.16,0 147.57,6.067 185,13.211 15.94,3.032 22.7,8.079 22.7,21.282"
         style="fill:#1b4d2e;fill-opacity:1;fill-rule:evenodd;stroke:none"
         id="path26" /></g></g></svg>