<?xml version="1.0" encoding="UTF-8" standalone="no"?>
<svg
   xmlns:dc="http://purl.org/dc/elements/1.1/"
   xmlns:cc="http://creativecommons.org/ns#"
   xmlns:rdf="http://www.w3.org/1999/02/22-rdf-syntax-ns#"
   xmlns:svg="http://www.w3.org/2000/svg"
   xmlns="http://www.w3.org/2000/svg"
   version="1.1"
   id="svg2"
   xml:space="preserve"
   width="17cm"
   height="8.1655588cm"
   viewBox="0 0 642.51969 308.61955"><metadata
     id="metadata8"><rdf:RDF><cc:Work
         rdf:about=""><dc:format>image/svg+xml</dc:format><dc:type
           rdf:resource="http://purl.org/dc/dcmitype/StillImage" /><dc:title></dc:title></cc:Work></rdf:RDF></metadata><defs
     id="defs6" /><g
     id="g10"
     transform="matrix(1.5992765,0,0,-1.5992765,37.795276,270.82426)"><g
       id="g12"
       transform="scale(0.1)"><path
         d="m 2551.42,182.539 c -25.94,0 -45.64,-7.988 -59.7,-23.848 -13.92,-15.75 -20.98,-38.367 -20.98,-67.6246 0,-28.75 7.11,-51.0547 21.14,-66.9141 14.1,-15.96871 33.96,-23.8398 59.54,-23.8398 25.57,0 45.22,7.87109 59.24,23.5273 13.86,15.8594 20.87,38.211 20.87,67.2266 0,29.4136 -6.9,51.9726 -20.72,67.7346 -13.97,15.808 -33.76,23.738 -59.39,23.738 m 40.36,-143.6523 c -9.4,-12.2344 -23.02,-18.3203 -40.98,-18.3203 -17.44,0 -30.95,6.1914 -40.41,18.6719 -9.62,12.3242 -14.33,30.0312 -14.33,52.9492 0,22.8125 4.71,40.3125 14.22,52.5895 9.42,12.176 22.92,18.321 40.52,18.321 17.86,0 31.58,-6.243 40.93,-18.371 9.52,-12.227 14.37,-29.922 14.37,-52.9965 0,-23.0782 -4.85,-40.7735 -14.32,-52.8438 m -231.39,65.8403 c -2.04,0.461 -4.8,1.171 -8.55,2.199 -26.39,6.445 -39.44,15.703 -39.44,27.265 0,8.75 3.54,15.907 10.55,21.024 7.16,5.215 16.78,7.883 28.85,7.883 11.46,0 20.51,-2.258 26.8,-7.012 6.45,-4.66 9.88,-11.359 10.13,-19.953 h 23.99 v 2.715 c 0,13.507 -5.26,24.043 -15.75,31.972 -10.44,7.727 -24.76,11.719 -43.02,11.719 -20.67,0 -36.99,-4.512 -48.75,-13.516 -11.93,-8.847 -17.81,-20.976 -17.81,-36.425 0,-7.567 1.58,-14.52 5.06,-20.762 3.38,-6.25 8.09,-11.258 13.98,-14.8438 6.03,-3.5742 16.87,-7.2656 32.52,-11.0938 3.13,-0.8203 5.33,-1.3867 6.76,-1.7968 1.74,-0.4571 4.05,-0.9649 7.27,-1.7383 27.52,-7.0117 41.23,-17.0899 41.23,-30.586 0,-9.4726 -3.79,-16.9921 -11.57,-22.4609 -7.62,-5.4766 -18.16,-8.2422 -31.4,-8.2422 -13.66,0 -23.85,2.7656 -30.39,8.293 -6.49,5.5742 -9.87,13.9141 -10.44,25.5273 h -24.96 v -2.4531 c 0,-17.7539 5.37,-30.8476 16.27,-39.2969 10.74,-8.59372 27.62,-12.832 50.28,-12.832 20.98,0 37.2,4.75781 48.96,14.2188 11.82,9.414 17.65,22.6562 17.65,39.4921 0,13.2032 -3.79,23.3789 -11.21,30.5977 -7.82,7.3125 -23.38,14.0117 -47.01,20.1059 M 2690.26,3.42969 h 23.54 V 83.4961 h 74.79 v 21.1719 h -74.79 v 53.926 h 78.93 v 21.125 H 2690.26 Z M 3474.21,179.719 h -25.12 L 3374.25,3.42969 h 24.4 l 19.54,45.58591 H 3500 l 17.49,-45.58591 h 27.42 z m -47.98,-110.8127 34.12,86.9257 32.43,-86.9257 z m -149.9,35.8207 c -2.15,0.461 -4.9,1.171 -8.69,2.199 -26.35,6.445 -39.4,15.703 -39.4,27.265 0,8.75 3.43,15.907 10.54,21.024 7.17,5.215 16.63,7.883 28.7,7.883 11.47,0 20.57,-2.258 26.81,-7.012 6.49,-4.66 9.98,-11.359 10.28,-19.953 h 23.99 v 2.715 c 0,13.507 -5.27,24.043 -15.81,31.972 -10.48,7.727 -24.75,11.719 -43.17,11.719 -20.52,0 -36.79,-4.512 -48.65,-13.516 -11.98,-8.847 -17.8,-20.976 -17.8,-36.425 0,-7.567 1.68,-14.52 5.11,-20.762 3.27,-6.25 7.87,-11.258 14.02,-14.8438 6.08,-3.5742 16.83,-7.2656 32.33,-11.0938 3.12,-0.8203 5.42,-1.3867 6.9,-1.7968 1.69,-0.4571 4.05,-0.9649 7.16,-1.7383 27.58,-7.0117 41.34,-17.0899 41.34,-30.586 0,-9.4726 -3.89,-16.9921 -11.61,-22.4609 -7.62,-5.4766 -18.06,-8.2422 -31.36,-8.2422 -13.71,0 -23.68,2.7656 -30.39,8.293 -6.6,5.5742 -10.13,13.9141 -10.44,25.5273 h -25.06 v -2.4531 c 0,-17.7539 5.52,-30.8476 16.37,-39.2969 10.9,-8.59372 27.63,-12.832 50.23,-12.832 20.93,0 37.3,4.75781 48.97,14.2188 11.86,9.414 17.74,22.6562 17.74,39.4921 0,13.2032 -3.78,23.3789 -11.4,30.5977 -7.62,7.3125 -23.27,14.0117 -46.71,20.1059 m -403.59,74.992 h -23.53 V 3.42969 H 2952.7 V 24.5039 h -79.96 z m 249.1,-100.5198 c 0,-20.4687 -3.79,-35.0976 -11.52,-43.9453 -7.57,-9.1094 -20,-13.5625 -36.93,-13.5625 -15.91,0 -27.68,4.4024 -35.1,12.9961 -7.47,8.5938 -11.31,22.207 -11.31,40.7734 V 179.719 h -24.14 V 71.0547 c 0,-23.2695 5.83,-40.8672 17.24,-52.6836 11.51,-11.87501 28.59,-17.753912 51.11,-17.753912 23.02,0 41.19,5.625002 54.02,16.933612 12.84,11.2578 19.28,26.9023 19.28,46.914 V 179.719 h -22.65 z M 1081.02,524.316 h 611.91 l 83.85,165.559 -611.6,0.254 39.65,78.168 h 611.5 l 82.71,163.578 -611.49,0.051 -53.66,-105.719 c -28.09,17.496 -231.9,144.957 -247.503,154.906 -11.766,7.242 -16.68,11.485 -16.68,19.387 1.738,10.14 9.977,10.64 23.891,10.64 4.449,0 144.522,-0.05 334.422,-0.05 l 0.3,0.16 h 612.63 l 83.85,168.66 -611.09,-0.2 39.14,77.43 611.8,0.13 100.42,199.82 c 0,0 -969.04,-0.2 -1021.37,-0.2 -182.024,0 -345.684,-33.21 -466.259,-110.09 C 541.051,1260.03 457.461,1142.32 426.66,1000.5 408.145,914.816 413.516,841.605 442.828,782.852 471.727,724.43 526.621,674.238 610.316,629.297 v -0.156 c 0,0 164.375,-89.11 182.582,-99.239 l 5.633,-3.027 c 60.364,-32.578 97.25,-44.09 86.715,-69.207 C 879.77,443.75 863.09,447.129 835.16,447.129 H 228.164 L 0,0 h 1955.83 l 92.8,181.867 -1141.439,-0.051 39.645,78.223 H 2088.18 l 95.71,187.285 H 1042.15 l 38.87,76.992"
         style="fill:#5a8fd2;fill-opacity:1;fill-rule:nonzero;stroke:none"
         id="path14" /></g></g></svg>