<?xml version="1.0" encoding="UTF-8" standalone="no"?>
<svg
   xmlns:dc="http://purl.org/dc/elements/1.1/"
   xmlns:cc="http://creativecommons.org/ns#"
   xmlns:rdf="http://www.w3.org/1999/02/22-rdf-syntax-ns#"
   xmlns:svg="http://www.w3.org/2000/svg"
   xmlns="http://www.w3.org/2000/svg"
   version="1.1"
   id="svg2"
   xml:space="preserve"
   width="17cm"
   height="7.4812608cm"
   viewBox="0 0 642.51971 111.79371"><metadata
     id="metadata8"><rdf:RDF><cc:Work
         rdf:about=""><dc:format>image/svg+xml</dc:format><dc:type
           rdf:resource="http://purl.org/dc/dcmitype/StillImage" /><dc:title></dc:title></cc:Work></rdf:RDF></metadata><defs
     id="defs6" /><g
     style="display:inline"
     id="g10"
     transform="matrix(3.1566817,0,0,-3.1566817,138.35375,94.958693)"><g
       style="opacity:1"
       id="g12"
       transform="matrix(0.1,0,0,0.1,-23.838981,-53.4322)"><path
         d="m 882.00772,591.01584 c 16.89,-9.144 40.46002,-16.179 67.54005,-16.179 20.76998,0 40.45995,4.215 40.45995,23.91 0,45.738 -116.08995,16.894 -116.08995,106.24699 0,59.1 57.67995,75.28003 106.93995,75.28003 23.57998,0 46.79998,-3.52 63.31008,-9.15002 l -4.2101,-50.65 c -16.8699,7.74 -35.8699,11.25 -54.52993,11.25 -16.52002,0 -43.96005,-1.40001 -43.96005,-22.86 0,-39.758 116.09008,-13.02001 116.09008,-101.664 0,-63.684 -53.47,-80.918 -108.01003,-80.918 -22.86,0 -51.35003,3.516 -73.16003,10.566 l 5.61998,54.168"
         style="display:inline;opacity:1;fill:#1565af;fill-opacity:1;fill-rule:evenodd;stroke:none;stroke-width:1"
         id="path16" /><path
         d="m 1143.1077,727.50383 h -60.5299 v 48.55 h 186.45 v -48.55 h -60.5001 V 530.50084 h -65.42 v 197.00299"
         style="display:inline;opacity:1;fill:#1565af;fill-opacity:1;fill-rule:evenodd;stroke:none;stroke-width:1"
         id="path18" /><path
         d="m 1527.5978,776.05383 h 78.11 c 74.93,0 110.09,-25.32999 110.09,-80.55999 0,-49.607 -36.21,-79.15 -97.43,-79.15 h -25.32 v -85.843 h -65.45 z m 65.45,-113.27199 h 16.87 c 22.53,0 40.46,8.086 40.46,33.772 0,24.97 -17.93,33.05999 -40.46,33.05999 h -16.87 v -66.83199"
         style="display:inline;opacity:1;fill:#1565af;fill-opacity:1;fill-rule:evenodd;stroke:none;stroke-width:1"
         id="path20" /><path
         d="m 1483.2679,585.57084 c -16.8,-6.074 -36.33,-10.734 -55.7001,-10.734 -47.84,0 -81.9601,29.199 -81.9601,77.39 0,45.727 30.2501,79.497 76.6901,79.497 19.79,0 37.9301,-4.63001 56.34,-13.54 v 53.03 c -19.5,5.21002 -39.4399,9.06002 -59.86,9.06002 -80.9101,0 -140.7101,-42.57003 -140.7101,-128.04702 0,-92.871 75.6201,-125.945 141.0602,-125.945 28.38,0 47.5899,3.812 64.14,7.758 v 51.531"
         style="display:inline;opacity:1;fill:#1565af;fill-opacity:1;fill-rule:evenodd;stroke:none;stroke-width:1"
         id="path22" /><path
         d="m 576.14076,530.50084 c -25.95299,0 -50.066,7.797 -70.203,21.105 -36.07798,-76.39 -109.47298,-128.941 -194.17998,-128.941 -84.703,0 -158.105,52.551 -194.168,128.941 34.532,22.817 57.34,61.942 57.34,106.43399 0,44.504 -22.808,83.634 -57.344,106.45401 -20.135995,13.31002 -44.241995,21.11002 -70.190995,21.11002 -7.793,0 -15.379,-0.81 -22.777,-2.15 -59.578,-10.75003 -104.7855,-62.75002 -104.7855,-125.41403 0,-62.64899 45.2075,-114.63699 104.7855,-125.39499 46.66,-118.992 157.592995,-202.71799 287.139995,-202.71799 129.547,0 240.49298,83.72599 287.13699,202.71799 -7.38701,-1.324 -14.97301,-2.144 -22.75401,-2.144 z M 0.99678482,658.04784 c 0,25.621 20.76900018,46.38599 46.39400018,46.38599 25.606,0 46.375,-20.76499 46.375,-46.38599 0,-25.618 -20.769,-46.379 -46.375,-46.379 -25.625,0 -46.39400018,20.761 -46.39400018,46.379"
         style="display:inline;opacity:1;fill:#f68712;fill-opacity:1;fill-rule:evenodd;stroke:none;stroke-width:1"
         id="path24" /><path
         d="m 598.89477,783.45386 c -46.652,118.99 -157.58999,202.75 -287.13699,202.75 -129.539,0 -240.479995,-83.76 -287.139995,-202.75 7.398,1.34 14.984,2.15 22.777,2.15 25.949,0 50.055,-7.8 70.190995,-21.11002 36.067,76.39002 109.469,128.94002 194.172,128.94002 84.707,0 158.102,-52.55 194.17998,-128.94002 -34.54298,-22.82001 -57.34798,-61.95001 -57.34798,-106.45401 0,-44.49199 22.805,-83.61699 57.34798,-106.43399 20.137,-13.308 44.25001,-21.105 70.203,-21.105 7.781,0 15.367,0.82 22.75401,2.144 59.57399,10.758 104.78896,62.735 104.78896,125.39499 0,62.66401 -45.21497,114.684 -104.78896,125.41403 z M 576.14076,611.66884 c -25.62899,0 -46.394,20.761 -46.394,46.379 0,25.621 20.76501,46.38599 46.394,46.38599 25.61001,0 46.375,-20.76499 46.375,-46.38599 0,-25.618 -20.76499,-46.379 -46.375,-46.379"
         style="display:inline;opacity:1;fill:#1565af;fill-opacity:1;fill-rule:evenodd;stroke:none;stroke-width:1"
         id="path26" /></g></g></svg>