<?xml version="1.0" encoding="UTF-8" standalone="no"?>
<svg
   xmlns:osb="http://www.openswatchbook.org/uri/2009/osb"
   xmlns:dc="http://purl.org/dc/elements/1.1/"
   xmlns:cc="http://creativecommons.org/ns#"
   xmlns:rdf="http://www.w3.org/1999/02/22-rdf-syntax-ns#"
   xmlns:svg="http://www.w3.org/2000/svg"
   xmlns="http://www.w3.org/2000/svg"
   version="1.0"
   width="17cm"
   height="4.9664006cm"
   viewBox="0 0 481.88974 140.77987"
   preserveAspectRatio="xMidYMid meet"
   id="svg26">
  <defs
     id="defs30">
    <linearGradient
       id="linearGradient1172"
       osb:paint="solid">
      <stop
         style="stop-color:#e55053;stop-opacity:1;"
         offset="0"
         id="stop1170" />
    </linearGradient>
  </defs>
  <metadata
     id="metadata2">
Created by potrace 1.14, written by Peter Selinger 2001-2017
<rdf:RDF>
  <cc:Work
     rdf:about="">
    <dc:format>image/svg+xml</dc:format>
    <dc:type
       rdf:resource="http://purl.org/dc/dcmitype/StillImage" />
    <dc:title></dc:title>
  </cc:Work>
</rdf:RDF>
</metadata>
  <path
     id="path30"
     style="fill:#e55053;fill-opacity:1;fill-rule:nonzero;stroke:none;stroke-width:0.06265429"
     d="m 48.971736,81.353445 23.338912,-3.132711 c 0,0 2.819445,-0.15664 3.915896,1.096447 1.096448,1.253086 5.87384,6.265423 7.910101,11.121198 0.626547,2.271223 -0.548222,4.464127 -2.584487,4.542437 -2.036264,0.07829 -42.60511,1.096457 -42.60511,1.096457 0,0 -1.80131,0.156629 -1.80131,1.409716 0,1.253088 1.488039,1.174768 1.488039,1.174768 l 48.7139,-0.156638 c 0,0 5.560571,-0.234952 7.048611,-0.783171 1.488047,-0.548228 4.934026,-2.897763 2.192894,-7.831847 C 93.84806,84.956065 90.575629,79.820295 88.522451,78.612322 85.859636,77.045966 82.413653,76.3411 80.299073,76.027831 c -2.114586,-0.313271 -5.56057,-0.469911 -9.241511,0 -3.680938,0.469907 -22.477417,3.28935 -22.477417,3.28935 0,0 -1.957947,0.313269 -1.957947,1.409715 0,1.096457 2.349538,0.626549 2.349538,0.626549" />
  <path
     id="path32"
     style="fill:#e55053;fill-opacity:1;fill-rule:nonzero;stroke:none;stroke-width:0.06265429"
     d="m 73.354468,70.934034 c 0,-0.04254 0.0039,-0.07955 7.79e-4,-0.127184 L 70.614748,40.160127 c -0.113404,-1.610842 -1.511222,-2.823831 -3.122689,-2.710427 -1.610843,0.114034 -2.824456,1.51185 -2.711052,3.122692 l 0.358231,5.048683 c -1.901558,1.454208 -5.725977,4.377657 -10.019548,7.651971 l -16.533655,-15.003195 0.51082,-6.779825 c 0.12111,-1.610211 -1.085673,-3.014298 -2.695889,-3.13522 -1.610403,-0.120926 -3.013986,1.085797 -3.135347,2.695387 l -4.910781,65.185213 c -0.121172,1.610403 1.085676,3.013229 2.696079,3.135159 1.610152,0.120869 3.013732,-1.085671 3.135658,-2.696141 L 35.698612,76.600485 54.979217,61.042184 68.474326,73.287957 c 1.195443,1.085798 3.044371,0.998089 4.130173,-0.196734 0.555743,-0.611511 0.800093,-1.392808 0.749969,-2.157189 z M 36.38781,67.451709 38.029288,45.661799 50.38929,56.877546 C 44.468708,61.384269 38.652136,65.793254 36.38781,67.451709 Z M 65.623555,52.452273 66.407362,63.51514 59.585561,57.324898 Z" />
  <path
     id="path14-3"
     style="fill:#25508b;fill-opacity:1;fill-rule:nonzero;stroke:none;stroke-width:0.11008982"
     d="m 234.83555,46.805003 c -2.87225,0 -5.23341,0.478738 -7.08259,1.43641 -1.85006,0.95679 -3.26958,2.137821 -4.25951,3.540585 -0.9908,1.401994 -1.67572,2.710839 -2.05586,3.917092 -0.38102,1.207134 -0.72418,2.605988 -1.02865,4.194145 l -0.5541,3.100144 h -7.54009 l -1.20908,8.160964 h 8.67386 l -5.09207,39.493447 h 9.73661 l 5.12334,-39.493447 h 7.31275 l 1.33837,-8.160964 h -7.44204 c 0.36946,-2.894152 1.04483,-4.868795 2.02319,-5.923235 0.97884,-1.054883 2.3975,-1.962099 4.31207,-1.962099 0.97881,0 3.64797,0.618684 5.84936,1.584171 l 0.82547,-8.396814 c -1.48058,-0.371117 -4.40543,-1.055694 -5.47142,-1.228976 -1.06567,-0.175048 -2.21989,-0.261423 -3.45961,-0.261423 z" />
  <path
     d="m 252.87358,97.319712 c -4.44047,0 -7.97071,-0.826994 -10.49111,-2.458525 -2.5183,-1.629 -4.25309,-3.596414 -5.15793,-5.848522 -0.91551,-2.278417 -1.37953,-4.563112 -1.37953,-6.795073 0,-3.344418 0.77106,-6.480216 2.29339,-9.321965 1.52144,-2.839545 3.65488,-5.12512 6.34436,-6.793752 2.68773,-1.667199 5.7633,-2.512249 9.14174,-2.512249 2.52349,0 4.85894,0.547476 6.9447,1.627678 2.07453,1.073816 3.75813,2.743658 5.0017,4.957123 1.25018,2.222384 1.8832,5.00127 1.8832,8.257948 0,1.452745 -0.13508,2.973745 -0.4025,4.526232 h -21.07492 v 0.336213 c 0,4.79276 2.38676,7.223764 7.0931,7.223764 2.26454,0 4.32267,-0.267408 6.11768,-0.797711 1.63978,-0.482854 3.58826,-1.175209 5.79821,-2.060661 l -1.50294,7.368201 c -2.22768,0.890186 -4.03723,1.499972 -5.38021,1.811747 -1.36842,0.318271 -3.12776,0.479552 -5.22894,0.479552 z m 0.55485,-26.926865 c -1.67204,0 -3.01029,0.665713 -3.97621,1.980294 -0.91551,1.245886 -1.78071,2.903619 -2.57115,4.923988 l -0.17933,0.460175 h 10.91517 V 77.42098 c 0,-0.144549 0.005,-0.282932 0.0151,-0.417132 0.0112,-0.148841 0.0172,-0.371993 0.0172,-0.660098 0,-3.949913 -1.41949,-5.950903 -4.22072,-5.950903"
     style="fill:#25508b;fill-opacity:1;fill-rule:nonzero;stroke:none;stroke-width:0.11008982"
     id="path16-6" />
  <path
     d="m 268.54167,96.732713 4.86113,-32.554766 h 10.09347 l -0.79813,5.553479 0.75938,-0.909561 c 2.90066,-3.472564 5.4937,-5.232239 7.70586,-5.232239 1.14648,0 2.17857,0.283811 3.0683,0.845929 0.86873,0.548248 1.80658,1.316344 2.791,2.280511 l -4.74762,9.738214 c -0.5161,-0.817966 -1.08329,-1.538285 -1.68922,-2.145099 -0.78142,-0.779216 -1.78335,-1.174879 -2.98056,-1.174879 -2.25168,0 -4.32577,1.604118 -6.16504,4.769972 l -0.0327,0.05593 -2.77503,18.772513 h -10.09086"
     style="fill:#25508b;fill-opacity:1;fill-rule:nonzero;stroke:none;stroke-width:0.11008982"
     id="path18-7" />
  <path
     d="m 310.97701,97.319712 c -1.38943,0 -2.76601,-0.250786 -4.09358,-0.745308 -1.3082,-0.486816 -2.52304,-1.402764 -3.61227,-2.72164 -1.29312,-1.522762 -1.9464,-3.557773 -1.9464,-6.053288 0,-1.12754 0.11868,-2.325208 0.35307,-3.560634 l 2.32653,-12.573909 h -6.13883 l 1.34729,-7.486986 h 6.19816 l 1.2734,-6.628179 h 10.28218 l -1.27253,6.628179 h 6.61782 l -1.58716,7.486986 h -6.43343 l -2.24044,11.106521 c -0.17845,0.93103 -0.26839,1.677218 -0.26839,2.221171 0,2.570818 1.51462,3.110038 2.78449,3.110038 1.69011,0 3.72324,-0.825673 6.05065,-2.454233 l -0.56509,9.166299 c -2.87092,1.662136 -5.92251,2.504983 -9.07547,2.504983"
     style="fill:#25508b;fill-opacity:1;fill-rule:nonzero;stroke:none;stroke-width:0.11008982"
     id="path20-5" />
  <path
     d="m 334.21037,97.319712 c -2.26787,0 -4.29791,-0.641603 -6.03623,-1.909397 -1.74934,-1.27374 -3.11884,-3.00248 -4.06892,-5.136791 -0.95558,-2.143779 -1.43997,-4.513242 -1.43997,-7.043987 0,-2.10943 0.35118,-4.299117 1.04584,-6.507848 0.68917,-2.197504 1.93978,-4.330493 3.71774,-6.341724 1.77135,-2.006167 4.31331,-3.656193 7.55546,-4.902408 3.25426,-1.253594 7.33199,-1.887931 12.11979,-1.887931 2.01575,0 3.69462,0.07619 4.98707,0.225795 1.25833,0.147519 3.02968,0.403368 5.27,0.762481 l -4.93203,32.154811 h -10.11505 l 0.61761,-3.549956 -0.7189,0.630814 c -1.23629,1.088458 -2.45169,1.957949 -3.60874,2.585019 -1.13062,0.61144 -2.60912,0.921122 -4.39367,0.921122 z m 9.75945,-26.406473 c -2.01794,0 -3.88837,0.580505 -5.55953,1.724448 -1.66235,1.138219 -2.98013,2.6972 -3.9159,4.635773 -0.93135,1.928773 -1.40474,4.044478 -1.40474,6.282823 0,1.566689 0.40622,2.923436 1.20658,4.031601 0.82457,1.142621 2.01464,1.722354 3.53719,1.722354 0.73761,0 1.57649,-0.189244 2.49465,-0.562448 0.89611,-0.366489 2.05206,-1.008533 3.43369,-1.907307 l 0.12659,-0.08169 2.49794,-15.845557 h -2.41647"
     style="fill:#25508b;fill-opacity:1;fill-rule:nonzero;stroke:none;stroke-width:0.11008982"
     id="path22" />
  <path
     d="m 372.64711,112.4334 c -2.51774,0 -4.80101,-0.11525 -6.78373,-0.34102 -1.9607,-0.22362 -3.68801,-0.63301 -5.13459,-1.217 -1.41464,-0.57196 -2.52436,-1.39634 -3.29829,-2.45123 -0.77063,-1.04368 -1.15924,-2.39271 -1.15924,-4.0101 0,-3.06702 2.41426,-5.430114 7.17895,-7.026853 l 0.71339,-0.236472 -0.65283,-0.374196 c -1.18127,-0.675181 -2.14786,-1.411352 -2.87445,-2.189687 -0.68806,-0.73672 -1.03705,-1.789838 -1.03705,-3.132054 0,-2.96593 2.24474,-4.736395 6.8619,-5.412015 l 1.19999,-0.176254 -1.11852,-0.466671 c -1.90126,-0.794188 -3.39958,-2.155339 -4.45534,-4.047451 -1.06566,-1.91072 -1.6062,-3.837292 -1.6062,-5.728083 0,-1.217044 0.23558,-2.504212 0.70016,-3.821768 0.45907,-1.309959 1.24841,-2.564323 2.34271,-3.734027 1.0921,-1.165409 2.55079,-2.114495 4.33425,-2.82017 1.79005,-0.71052 4.00616,-1.070402 6.58446,-1.070402 H 393.835 l -0.94897,6.735292 h -4.88027 l 0.15411,0.445865 c 0.57247,1.653989 0.86311,3.19866 0.86311,4.590745 0,2.190127 -0.53284,4.161835 -1.5831,5.862614 -1.04695,1.696593 -2.64875,3.035285 -4.76358,3.980955 -2.13133,0.957232 -4.77129,1.440636 -7.8428,1.440636 h -1.92656 c -1.11742,0 -2.02346,0.190457 -2.69391,0.565422 -0.73099,0.411185 -1.10089,1.014036 -1.10089,1.794574 0,0.645015 0.19815,1.143061 0.58897,1.479387 0.36331,0.313865 1.0987,0.596467 2.31189,0.889305 1.14934,0.275224 3.09793,0.665272 5.79513,1.160677 7.52684,1.39671 11.34587,4.54759 11.34587,9.365351 0,1.56619 -0.39303,3.10058 -1.16916,4.5584 -0.76513,1.43505 -2.38125,2.70408 -4.79992,3.76584 -2.4484,1.07554 -5.9922,1.62039 -10.53781,1.62039 z m -3.12874,-12.28107 c -1.60842,0.64855 -2.67519,1.17961 -3.26197,1.62773 -0.63961,0.49025 -0.96439,1.13444 -0.96439,1.91496 0,1.12972 0.66164,1.95324 1.96291,2.45208 1.19889,0.45928 3.10013,0.69237 5.65202,0.69237 2.55518,0 4.26267,-0.22448 5.22154,-0.68678 1.02605,-0.49325 1.54567,-1.20926 1.54567,-2.13084 0,-1.1555 -0.58677,-1.99107 -1.69978,-2.41896 -1.02495,-0.39479 -3.0627,-0.78055 -6.23219,-1.17831 l -2.14014,-0.30528 z m 5.74008,-30.349896 c -1.98161,0 -3.38416,0.827765 -4.17131,2.459737 -0.74751,1.552927 -1.12731,3.036167 -1.12731,4.407116 0,1.540816 0.42714,2.766005 1.26823,3.64243 0.8455,0.88237 1.88364,1.328785 3.08361,1.328785 1.88805,0 3.25757,-0.774042 4.06783,-2.301538 0.77172,-1.456158 1.16585,-3.024498 1.16585,-4.660763 0,-1.536083 -0.38091,-2.742777 -1.13063,-3.585735 -0.76072,-0.855287 -1.82308,-1.290032 -3.15627,-1.290032"
     style="fill:#25508b;fill-opacity:1;fill-rule:nonzero;stroke:none;stroke-width:0.11008982"
     id="path24" />
  <path
     d="m 401.82091,97.319712 c -2.24032,0 -4.03809,-0.518192 -5.34155,-1.543018 -1.31337,-1.032094 -2.24254,-2.30374 -2.76215,-3.780926 -0.52954,-1.502945 -0.79705,-2.990918 -0.79705,-4.425059 0,-0.676392 0.10899,-1.891343 0.32365,-3.612267 l 2.9262,-19.780495 h 10.12607 l -2.94602,20.342504 c -0.0473,0.273132 -0.0693,0.664392 -0.0693,1.18952 0,2.867951 1.67338,3.469921 3.07702,3.469921 1.19559,0 2.37904,-0.39214 3.51957,-1.166181 1.09429,-0.744868 2.60253,-2.02125 4.47956,-3.788632 l 0.0859,-0.08092 2.91297,-19.966217 h 10.21963 l -4.86046,32.554767 h -10.15799 l 0.6088,-4.265981 -2.64325,1.845656 c -0.87852,0.614962 -1.7108,1.123687 -2.47263,1.512083 -0.7486,0.37794 -1.69317,0.726263 -2.80949,1.033744 -1.10971,0.30671 -2.26014,0.461496 -3.41939,0.461496"
     style="fill:#25508b;fill-opacity:1;fill-rule:nonzero;stroke:none;stroke-width:0.11008982"
     id="path26" />
  <path
     d="m 439.24485,97.319712 c -1.08329,0 -2.65978,-0.201244 -4.68542,-0.596466 -1.94309,-0.380581 -3.99516,-1.116421 -6.10118,-2.188036 l 1.28255,-6.955914 c 2.2161,0.895801 3.96983,1.564045 5.21716,1.991085 1.33428,0.455881 2.77646,0.686739 4.28689,0.686739 0.96989,0 1.74052,-0.235151 2.28987,-0.700941 0.56696,-0.47735 0.85429,-1.033743 0.85429,-1.658613 0,-0.749602 -0.38311,-1.475865 -1.13943,-2.158751 -0.69687,-0.632246 -2.02345,-1.669842 -4.05681,-3.171577 -1.79446,-1.366215 -3.317,-2.825345 -4.52359,-4.329173 -1.17465,-1.466946 -1.77025,-3.136347 -1.77025,-4.963948 0,-2.525681 1.04586,-4.792761 3.11006,-6.740911 2.06857,-1.953653 5.13678,-2.94358 9.12092,-2.94358 2.12914,0 3.99846,0.263664 5.55624,0.782628 1.51593,0.505312 3.14858,1.223539 4.85717,2.138164 l -0.74313,7.131399 c -1.51152,-0.728905 -3.17167,-1.398913 -4.94522,-1.993287 -1.9706,-0.660097 -3.56031,-0.994221 -4.72506,-0.994221 -2.11372,0 -2.55627,1.01657 -2.55627,1.869325 0,0.67397 0.25649,1.288821 0.75961,1.829913 0.46569,0.499697 1.21429,1.107283 2.28986,1.857765 1.03375,0.721088 1.97172,1.434141 2.78199,2.117908 2.15445,1.791932 3.61424,3.415316 4.34082,4.826337 0.72329,1.403645 1.08881,2.734631 1.08881,3.958499 0,1.564927 -0.4668,3.16079 -1.38935,4.74333 -0.92255,1.58122 -2.34491,2.900097 -4.22855,3.920629 -1.89023,1.023505 -4.23516,1.541697 -6.97198,1.541697"
     style="fill:#25508b;fill-opacity:1;fill-rule:nonzero;stroke:none;stroke-width:0.11008982"
     id="path28" />
  <path
     d="m 133.1869,97.58074 c -1.08328,0 -2.65978,-0.20124 -4.68542,-0.596471 -1.94309,-0.380582 -3.99516,-1.116422 -6.10118,-2.188037 l 1.28255,-6.955913 c 2.2161,0.8958 3.96983,1.564045 5.21716,1.991086 1.33428,0.45588 2.77646,0.686738 4.28689,0.686738 0.96989,0 1.74052,-0.235152 2.28987,-0.700941 0.56696,-0.477351 0.85429,-1.033744 0.85429,-1.658614 0,-0.749601 -0.38311,-1.475865 -1.13942,-2.15875 -0.69688,-0.632247 -2.02346,-1.669843 -4.05682,-3.171578 -1.79446,-1.366215 -3.317,-2.825345 -4.52359,-4.329172 -1.17465,-1.466946 -1.77025,-3.136348 -1.77025,-4.963949 0,-2.525681 1.04586,-4.792761 3.11006,-6.74091 2.06857,-1.953653 5.13678,-2.94358 9.12092,-2.94358 2.12914,0 3.99847,0.263663 5.55625,0.782628 1.51592,0.505311 3.14857,1.223538 4.85716,2.138163 l -0.74312,7.131399 c -1.51153,-0.728905 -3.17168,-1.398912 -4.94523,-1.993287 -1.9706,-0.660097 -3.56031,-0.994221 -4.72506,-0.994221 -2.11371,0 -2.55627,1.01657 -2.55627,1.869325 0,0.67397 0.2565,1.288821 0.75961,1.829913 0.46569,0.499697 1.21429,1.107283 2.28987,1.857765 1.03375,0.721088 1.97171,1.434141 2.78198,2.117908 2.15445,1.791932 3.61424,3.415317 4.34083,4.826338 0.72328,1.403644 1.0888,2.734631 1.0888,3.958499 0,1.564927 -0.4668,3.16079 -1.38934,4.743329 -0.92255,1.581222 -2.34492,2.900098 -4.22855,3.920629 -1.89024,1.023503 -4.23517,1.541703 -6.97199,1.541703"
     style="fill:#8aa3b9;fill-opacity:1;fill-rule:nonzero;stroke:none;stroke-width:0.11008982"
     id="path28-3" />
  <path
     d="m 160.94812,97.77155 c -2.24032,0 -4.0381,-0.51821 -5.34156,-1.543034 -1.31337,-1.032092 -2.24254,-2.303738 -2.76215,-3.780924 -0.52954,-1.502946 -0.79705,-2.990918 -0.79705,-4.425059 0,-0.676391 0.10899,-1.891343 0.32365,-3.612267 l 2.9262,-19.780496 h 10.12607 l -2.94602,20.342505 c -0.0473,0.273132 -0.0694,0.664393 -0.0694,1.18952 0,2.867951 1.67338,3.469922 3.07702,3.469922 1.1956,0 2.37904,-0.39214 3.51957,-1.166182 1.09429,-0.744869 2.60253,-2.021249 4.47957,-3.788631 l 0.0859,-0.08092 2.91297,-19.966218 h 10.21963 l -4.86046,32.554774 h -10.15799 l 0.60881,-4.265987 -2.64326,1.845656 c -0.87852,0.614962 -1.7108,1.12369 -2.47262,1.512085 -0.74861,0.377939 -1.69318,0.726256 -2.8095,1.033746 -1.10971,0.30671 -2.26014,0.4615 -3.41939,0.4615"
     style="fill:#8aa3b9;fill-opacity:1;fill-rule:nonzero;stroke:none;stroke-width:0.11008982"
     id="path26-5" />
  <path
     id="path14-3-6"
     style="fill:#8aa3b9;fill-opacity:1;fill-rule:nonzero;stroke:none;stroke-width:0.11008982"
     d="m 212.28066,42.057444 c -9.7e-4,0.0012 -0.003,0.0016 -0.005,0.0028 9.7e-4,-5.5e-5 0.003,5.3e-5 0.005,0 -5e-5,-9.46e-4 6e-5,-0.0019 0,-0.0028 z m -1.32275,1.349741 c -0.0731,-0.0044 0.0477,0.235416 0.10656,0.191806 0.0785,-0.05814 0.15122,-0.121783 0.22448,-0.186122 -0.11154,-0.002 -0.21907,9.7e-4 -0.33104,-0.0056 z m -11.16449,9.803388 c -0.0801,0.134526 -0.16395,0.266211 -0.2458,0.399239 0.27831,-0.05414 0.55602,-0.0962 0.83401,-0.136395 -0.044,-0.04837 -0.0879,-0.09725 -0.12645,-0.152023 -0.1536,-0.03806 -0.30771,-0.07424 -0.46176,-0.110821 z m 3.56048,0.29126 c -0.8215,0.240723 -1.66739,0.557587 -2.4338,0.312571 -0.226,0.750559 -0.68486,1.454667 -1.30854,1.835648 -0.26174,0.642328 -0.58609,1.260109 -0.89793,1.882535 -0.13085,0.07775 -0.26507,0.14966 -0.39783,0.224484 -0.0794,0.183003 -0.14525,0.327641 -0.27989,0.672029 -0.0258,0.02783 -0.0639,0.05922 -0.0923,0.08809 -0.067,0.268958 -0.14765,0.533171 -0.26995,0.780009 -0.0548,0.110532 -0.12416,0.211714 -0.19891,0.309731 l -4.96136,38.48043 H 202.25 l 5.04093,-38.859779 c -0.21216,-0.190027 -0.25986,-0.48412 -0.1577,-0.937716 -0.5347,-0.844196 -0.45655,-1.150316 -0.54133,-2.421009 -0.25939,-0.238535 -0.64206,-0.765289 -0.92635,-1.564281 -0.077,-0.216436 -0.0793,-0.446464 -0.0667,-0.679133 -0.0535,0.0023 -0.10351,1.07e-4 -0.15912,0.0043 -0.12531,0.324255 -0.11443,0.273295 -0.0227,0.0015 -0.23362,0.01794 -0.47109,0.037 -0.6706,0.0071 -0.4387,0.01135 -0.91607,-0.05622 -1.39238,-0.136395 z m 11.03804,4.528028 c -0.0223,0.07413 -0.0649,0.1573 -0.12787,0.248637 0.16214,0.0074 0.30991,0.03015 0.4646,0.04546 l 0.0383,-0.233009 c -0.11455,-0.03549 -0.23806,-0.05792 -0.37509,-0.0611 z m -16.6004,0.633668 c -0.0337,0.03151 -0.061,0.06208 -0.0966,0.09377 -0.0183,0.02592 -0.10953,0.172507 -0.13924,0.217379 l -0.0256,0.201751 c 0.11743,-0.217824 0.23402,-0.435873 0.26143,-0.512902 z" />
  <path
     id="path14-3-6-2"
     style="fill:#8aa3b9;fill-opacity:1;fill-rule:nonzero;stroke:none;stroke-width:0.11008465"
     d="m 189.24823,103.47013 c 9.6e-4,-9.3e-4 0.003,-0.002 0.005,-0.003 -9.6e-4,7e-5 -0.003,-4e-5 -0.005,2e-5 1e-5,9.5e-4 -7e-5,0.002 -1e-5,0.003 z m 1.32017,-1.35228 c 0.0731,0.005 -0.0482,-0.23534 -0.10688,-0.19161 -0.0786,0.0583 -0.15098,0.12207 -0.22414,0.18655 0.11153,9.5e-4 0.21905,-1.9e-4 0.33101,0.005 z m 11.14559,-9.824857 c 0.0799,-0.134683 0.16345,-0.266527 0.24502,-0.399713 -0.27815,0.05468 -0.55576,0.09727 -0.83367,0.138 0.044,0.04827 0.0882,0.09708 0.12671,0.151779 0.15365,0.03777 0.30783,0.07365 0.46194,0.109937 z m -3.5607,-0.284413 c 0.82101,-0.242303 1.66624,-0.560793 2.43301,-0.31725 0.22462,-0.750995 0.68217,-1.455983 1.30507,-1.838165 0.26058,-0.642828 0.58373,-1.261233 0.89444,-1.884256 0.13068,-0.07801 0.26477,-0.150168 0.39735,-0.225248 0.0791,-0.183156 0.14467,-0.327919 0.27866,-0.672568 0.0259,-0.02788 0.0637,-0.05935 0.0922,-0.08826 0.0667,-0.269083 0.14669,-0.533453 0.2685,-0.780526 0.0546,-0.110638 0.12377,-0.211954 0.19833,-0.310112 l 4.89085,-38.489892 -9.73567,0.01873 -4.96969,38.869392 c 0.21249,0.18962 0.2607,0.483621 0.15939,0.937412 0.53619,0.843166 0.45861,1.149434 0.54567,2.419964 0.25983,0.238034 0.64342,0.764052 0.9291,1.562494 0.0775,0.216289 0.0801,0.446311 0.0679,0.679005 0.0535,-0.0025 0.10351,-3.47e-4 0.15913,-0.0046 0.1247,-0.324497 0.11392,-0.273515 0.0227,-0.0015 0.23357,-0.01839 0.47098,-0.03791 0.67053,-0.0083 0.43866,-0.01226 0.91609,0.05446 1.39249,0.133717 z m -11.04522,-4.506789 c 0.0223,-0.07418 0.0645,-0.157425 0.12742,-0.248882 -0.16213,-0.0069 -0.30996,-0.02957 -0.46465,-0.04455 l -0.038,0.23308 c 0.11462,0.03528 0.23815,0.05747 0.37516,0.06037 z m 16.59766,-0.665595 c 0.0337,-0.03159 0.061,-0.06219 0.0964,-0.09396 0.0182,-0.02595 0.10922,-0.172717 0.13885,-0.217647 l 0.0251,-0.201801 c -0.11701,0.218048 -0.23322,0.436323 -0.26048,0.513407 z" />
  <path
     style="opacity:0;fill:#e55053;fill-opacity:1;stroke-width:0.48495984"
     d="m 48.122137,98.32745 c -1.067093,-0.206949 -1.038827,-1.411102 0.04017,-1.711389 0.466773,-0.129906 6.413593,-0.365276 13.215155,-0.523043 25.621052,-0.594319 29.140958,-0.804382 30.134961,-1.798385 1.926449,-1.926449 0.515675,-5.487667 -4.622741,-11.669188 -2.043677,-2.458542 -3.087379,-3.319031 -4.286403,-3.533982 -0.87172,-0.156268 -6.478302,0.378676 -12.459072,1.188767 -11.827359,1.602019 -13.616344,1.729816 -13.616344,0.972726 0,-0.744739 0.228587,-0.790982 13.336395,-2.698104 9.576497,-1.393329 12.990145,-1.707097 16.246154,-1.493275 4.608578,0.302644 9.31085,1.73285 11.040847,3.358096 1.55715,1.462867 5.316311,7.233537 6.745031,10.354261 1.08755,2.375528 1.11945,2.668802 0.46154,4.243389 -1.16632,2.791397 -1.89355,2.965946 -12.912855,3.09941 -21.182012,0.256545 -42.550591,0.360482 -43.322841,0.210717 z"
     id="path1160" />
  <path
     style="opacity:0;fill:#e55053;fill-opacity:1;stroke:none;stroke-width:0.32346818;stroke-miterlimit:4;stroke-dasharray:none;stroke-opacity:1"
     d="m 48.122137,101.23722 c -1.067093,-0.20695 -1.038827,-1.411117 0.04016,-1.711405 0.466775,-0.129901 6.413595,-0.365271 13.215155,-0.523038 25.621053,-0.594319 29.140959,-0.804384 30.134962,-1.798385 1.92645,-1.926448 0.515674,-5.487667 -4.622742,-11.669188 -2.043676,-2.458542 -3.087378,-3.319031 -4.286402,-3.533982 -0.87172,-0.156268 -6.478303,0.378676 -12.459072,1.188768 -11.827359,1.602018 -13.616344,1.729815 -13.616344,0.972725 0,-0.744739 0.228587,-0.790982 13.336395,-2.698104 9.576497,-1.393329 12.990145,-1.707097 16.246154,-1.493275 4.608578,0.302644 9.31085,1.73285 11.040848,3.358096 1.557149,1.462867 5.316309,7.233538 6.745029,10.354261 1.08755,2.375528 1.11945,2.668802 0.46154,4.243384 -1.16632,2.791413 -1.89354,2.965953 -12.912854,3.099423 -21.182008,0.25655 -42.550586,0.36048 -43.322836,0.21072 z"
     id="path1176" />
  <path
     style="opacity:0;fill:#e55053;fill-opacity:1;stroke:none;stroke-width:0.32346818;stroke-miterlimit:4;stroke-dasharray:none;stroke-opacity:1"
     d="m 39.685904,98.449609 c -0.419143,-0.419144 -0.765425,-1.564861 -0.769513,-2.546039 -0.01012,-2.428768 4.355454,-61.152736 4.649385,-62.541673 0.362943,-1.715043 2.294282,-2.37771 3.887443,-1.333831 1.278475,0.837689 1.290685,0.898169 0.972679,4.817433 l -0.322051,3.969092 7.759509,7.005984 c 4.26773,3.853291 7.97825,7.078898 8.2456,7.168014 0.267349,0.08912 2.565995,-1.435964 5.1081,-3.389067 l 4.622012,-3.551097 9.45e-4,-3.198316 c 0.0011,-3.712169 0.973055,-5.15155 3.115573,-4.613812 1.7416,0.437113 2.015127,1.893665 3.410647,18.161961 1.272133,14.829897 1.232951,15.707631 -0.728999,16.33033 -1.322869,0.419862 -2.052989,-0.110269 -9.305653,-6.756709 l -6.176657,-5.66036 -9.395216,7.555489 -9.395217,7.55549 -0.574592,8.348557 c -0.712725,10.355562 -0.92296,11.822954 -1.822806,12.722804 -0.932683,0.932679 -2.323006,0.913934 -3.281189,-0.04431 z m 13.56926,-34.711846 c 3.605171,-2.706799 6.49289,-5.068193 6.417154,-5.247541 -0.26146,-0.619156 -11.616564,-10.763624 -11.820205,-10.559982 -0.215189,0.215189 -1.653891,17.077363 -1.653891,19.38427 0,0.73959 0.11297,1.344707 0.251044,1.344707 0.138073,0 3.200728,-2.214653 6.805898,-4.921454 z m 21.770215,-3.201622 c -0.458546,-7.047684 -0.303813,-6.837754 -3.262528,-4.426401 -1.39097,1.133642 -2.747269,2.25789 -3.013997,2.498331 -0.308398,0.278004 0.66269,1.478118 2.667279,3.29634 1.733731,1.572546 3.317185,2.862764 3.518788,2.867152 0.201602,0.0044 0.242308,-1.901554 0.09045,-4.235422 z"
     id="path1178" />
</svg>
