<?xml version="1.0" encoding="UTF-8" standalone="no"?>
<svg
   xmlns:dc="http://purl.org/dc/elements/1.1/"
   xmlns:cc="http://creativecommons.org/ns#"
   xmlns:rdf="http://www.w3.org/1999/02/22-rdf-syntax-ns#"
   xmlns:svg="http://www.w3.org/2000/svg"
   xmlns="http://www.w3.org/2000/svg"
   version="1.1"
   id="svg2"
   xml:space="preserve"
   width="17cm"
   height="6.1315031cm"
   viewBox="0 0 642.51969 231.74185"><metadata
     id="metadata8"><rdf:RDF><cc:Work
         rdf:about=""><dc:format>image/svg+xml</dc:format><dc:type
           rdf:resource="http://purl.org/dc/dcmitype/StillImage" /><dc:title></dc:title></cc:Work></rdf:RDF></metadata><defs
     id="defs6" /><g
     id="g10"
     transform="matrix(1.6231877,0,0,-1.6231877,37.795276,193.94658)"><g
       id="g12"
       transform="scale(0.1)"><path
         d="m 1017.56,172.559 h 394.68 l 56.28,112.734 H 1073.81 Z M 932.496,3.50781 H 1327.25 L 1383.7,116.211 H 988.945 Z M 1102.22,341.738 h 394.75 l 56.24,112.774 H 1158.5 Z m 1041.82,507.852 56.62,112.414 H 225.566 L 0,510.805 H 394.547 L 140.977,3.24219 h 394.711 l 253.574,507.56281 1184.588,0.32 56.58,112.293 h -986.11 l 28.68,57.434 h 986.11 l 56.65,112.425 h -986.14 l 28.21,56.313 h 986.21"
         style="fill:#f14b1c;fill-opacity:1;fill-rule:evenodd;stroke:none"
         id="path14" /><path
         d="m 1727.66,173.098 h 63.93 V 3.33984 h 25.95 V 173.098 h 64.3 v 23.25 H 1727.66 Z M 2058.67,71.6523 c -2.02,9.1407 -4.98,15.7696 -8.99,19.7149 -3.95,4.1133 -10.18,7.1484 -18.57,9.0738 11.05,2.957 19.81,8.387 25.98,16.309 6.23,8.016 9.37,17.723 9.37,29.246 0,16.652 -5.33,29.192 -16.08,37.617 -10.61,8.496 -26.55,12.735 -47.89,12.735 h -67.97 V 3.33984 h 25.88 V 90.5273 h 32.12 c 12.43,0 21.4,-1.3476 26.96,-4.1796 5.42,-2.8985 9.44,-8.0157 12.1,-15.3985 1.42,-3.8086 2.93,-13.2148 4.79,-28.4101 1.78,-15.1641 3.97,-28.3086 6.74,-39.19926 h 27.59 c -3.3,11.42576 -6.02,24.94146 -8.04,40.50786 -2.06,15.6054 -3.38,24.914 -3.99,27.8046 m -60.83,42.5387 h -37.44 v 57.559 h 37.44 c 16.24,0 27.06,-2.16 32.63,-6.477 5.55,-4.304 8.39,-11.66 8.39,-22.07 0,-10.312 -3.14,-17.793 -9.41,-22.246 -6.23,-4.551 -16.68,-6.766 -31.61,-6.766 m 198.54,82.157 -81.97,-193.00816 h 26.73 l 21.51,49.84376 h 89.54 L 2271.4,3.33984 h 30.16 L 2224.05,196.348 Z m -25.07,-121.2582 37.4,95.2152 35.53,-95.2152 z m 479.74,39.3632 c -2.36,0.539 -5.45,1.32 -9.57,2.395 -28.98,7.215 -43.47,17.156 -43.47,29.754 0,9.648 3.94,17.265 11.79,22.988 7.75,5.664 18.36,8.566 31.55,8.566 12.7,0 22.65,-2.531 29.59,-7.687 7.14,-5.059 10.88,-12.266 11.29,-21.602 h 25.98 v 2.969 c 0,14.727 -5.83,26.32 -17.25,34.746 -11.53,8.527 -27.31,12.734 -47.26,12.734 -22.61,0 -40.4,-4.851 -53.45,-14.695 -13.04,-9.668 -19.51,-22.949 -19.51,-39.629 0,-8.359 1.82,-15.91 5.6,-22.785 3.7,-6.844 8.83,-12.234 15.4,-16.172 6.57,-3.914 18.47,-7.9295 35.45,-12.1092 3.44,-0.9063 5.94,-1.582 7.69,-1.9805 1.68,-0.4687 4.2,-1.1133 7.82,-1.9922 29.89,-7.4804 44.85,-18.6718 44.85,-33.3984 0,-10.4414 -4.18,-18.6719 -12.5,-24.6992 -8.39,-6.0352 -19.78,-9.0039 -34.21,-9.0039 -14.93,0 -25.88,3.039 -33.09,9.1015 -7.18,6.0664 -10.96,15.3047 -11.46,27.9688 h -27.5 v -2.5586 c 0,-19.5117 5.93,-33.9649 17.79,-43.3399 C 2598.41,4.66016 2616.81,0 2641.61,0 c 22.85,0 40.78,5.15625 53.56,15.5781 12.91,10.3789 19.34,24.8711 19.34,43.2696 0,14.4921 -4.14,25.6836 -12.36,33.6718 -8.43,7.9885 -25.31,15.3325 -51.1,21.9335 M 2481.5,38.8984 2390.2,196.348 h -36.7 V 3.33984 h 23.86 V 167.031 L 2473.18,3.33984 h 31.58 V 196.348 H 2481.5 Z M 2759.98,173.098 H 2824 V 3.33984 h 25.89 V 173.098 h 64.34 v 23.25 h -154.25 z m 232.84,-81.223 h 89.88 v 22.988 h -89.88 v 58.535 h 93.79 v 22.95 H 2966.9 V 3.33984 h 121.84 V 26.1914 h -95.92 z m 234.74,-23.0469 c 0,-16.9922 -2.64,-28.9258 -7.85,-35.9258 -5.24,-6.9453 -14.1,-10.3515 -26.29,-10.3515 -9.38,0 -16.42,2.4609 -21.37,7.3828 -4.99,4.9883 -7.45,12.0977 -7.45,21.3359 0,0.5664 0,1.211 0.13,2.2188 0.04,0.9062 0.04,1.5508 0.04,2.0586 h -25.55 c 0,-0.6055 -0.07,-1.5821 -0.17,-2.7617 -0.03,-1.2813 -0.07,-2.2579 -0.07,-2.9024 0,-15.9062 4.93,-28.1445 14.57,-36.875 C 3163.25,4.31641 3177.1,0 3194.7,0 c 19.48,0 34.17,5.33203 43.97,16.1836 9.88,10.7812 14.87,26.7578 14.87,47.957 V 196.348 h -25.98 z M 3470,173.469 c -15.16,17.254 -36.93,25.847 -65.11,25.847 -28.21,0 -49.95,-8.632 -65.24,-25.945 -15.33,-17.297 -22.99,-42.031 -22.99,-74.0819 0,-31.4063 7.78,-55.7735 23.18,-73.1641 C 3355.28,8.63281 3376.95,0 3404.89,0 c 28.04,0 49.61,8.63281 64.95,25.8203 15.27,17.3242 22.85,41.7188 22.85,73.4688 0,32.1559 -7.46,56.9609 -22.69,74.1799 M 3449.25,42.1992 C 3438.96,28.8477 3424,22.2188 3404.43,22.2188 c -19.28,0 -34.08,6.7656 -44.57,20.3789 -10.47,13.625 -15.59,32.832 -15.59,57.9683 0,24.981 5.09,44.122 15.59,57.5 10.38,13.411 25.22,20.09 44.57,20.09 19.48,0 34.37,-6.679 44.82,-20.156 10.41,-13.41 15.54,-32.687 15.54,-57.969 0,-25.2732 -5.13,-44.5232 -15.54,-57.8318"
         style="fill:#112b55;fill-opacity:1;fill-rule:nonzero;stroke:none"
         id="path16" /></g></g></svg>