<?xml version="1.0" encoding="UTF-8" standalone="no"?>
<svg
   xmlns:dc="http://purl.org/dc/elements/1.1/"
   xmlns:cc="http://creativecommons.org/ns#"
   xmlns:rdf="http://www.w3.org/1999/02/22-rdf-syntax-ns#"
   xmlns:svg="http://www.w3.org/2000/svg"
   xmlns="http://www.w3.org/2000/svg"
   id="svg29"
   version="1.1"
   viewBox="0 0 170 99.752967"
   height="9.975297cm"
   width="17cm">
  <defs
     id="defs23" />
  <metadata
     id="metadata26">
    <rdf:RDF>
      <cc:Work
         rdf:about="">
        <dc:format>image/svg+xml</dc:format>
        <dc:type
           rdf:resource="http://purl.org/dc/dcmitype/StillImage" />
        <dc:title></dc:title>
      </cc:Work>
    </rdf:RDF>
  </metadata>
  <g
     transform="translate(-13.57001,-78.072193)"
     id="layer1">
    <path
       d="m 173.32705,113.81296 -0.49988,-2.12118 -0.73776,-2.04554 -0.9596,-1.94794 -1.15989,-1.8495 -1.35047,-1.73286 -1.51989,-1.63314 -1.67625,-1.52836 -1.82413,-1.432851 -1.95427,-1.337778 -2.09288,-1.250744 -2.21499,-1.159475 -2.34048,-1.081295 -2.44951,-0.992129 -2.56191,-0.916506 -2.66669,-0.835795 -2.7702,-0.75129 -2.87079,-0.675227 -2.96163,-0.595383 -3.04403,-0.51254 -3.13107,-0.436065 -3.21812,-0.349457 -3.27431,-0.267467 -3.35249,-0.182125 -3.41756,-0.09762 -3.46995,-0.0085 -3.5308,0.07389 -3.56925,0.164789 -3.6132,0.258601 -3.65672,0.347325 -3.682495,0.438609 -3.712916,0.538331 -3.730246,0.636349 -3.70911,0.720867 -3.63898,0.799461 -3.560795,0.88101 -3.486858,0.951149 -3.400657,1.022978 -3.317836,1.089764 -3.226146,1.153124 -3.140115,1.218204 -3.048419,1.274389 -2.948744,1.335677 -2.848724,1.38723 -2.744738,1.4396 -2.640285,1.48948 -2.531812,1.53512 -2.414431,1.57864 -2.301741,1.62427 -2.184186,1.66737 -2.062916,1.70244 -1.936786,1.74765 -1.802077,1.7785 -1.676496,1.81949 -1.537014,1.85878 -1.394065,1.8892 -1.250802,1.93019 -1.094334,1.96485 -0.933561,2.00202 -0.755797,2.04132 -0.581829,2.06669 -0.386399,2.10006 -0.18701,2.11272 0.03054,2.12542 0.247586,2.11484 0.477674,2.08907 0.694727,2.02358 0.894611,1.93695 1.085582,1.84991 1.264001,1.75442 1.424279,1.66779 1.57648,1.57187 1.719722,1.48483 1.849783,1.39019 1.980392,1.31116 2.1061,1.22919 2.219215,1.14188 2.331909,1.0641 2.445023,0.98145 2.549142,0.9032 2.653298,0.82084 2.748708,0.74684 2.844584,0.66023 2.931249,0.57754 3.018254,0.49502 3.100687,0.41249 3.183047,0.32151 3.25276,0.23438 3.322066,0.14773 3.391785,0.0564 3.452204,-0.0348 3.508829,-0.13457 3.561224,-0.22593 3.613196,-0.32122 3.652074,-0.42999 3.695169,-0.52551 3.73066,-0.62973 3.72179,-0.72509 3.66095,-0.81652 3.6039,-0.89463 3.53545,-0.97264 3.4653,-1.05954 3.39137,-1.12056 3.30938,-1.1942 3.22657,-1.25514 3.14417,-1.32425 3.0529,-1.38131 2.95741,-1.44173 2.85684,-1.48948 2.75796,-1.54567 2.64472,-1.5854 2.54034,-1.63695 2.4233,-1.67623 2.30162,-1.71554 2.18414,-1.75864 2.05443,-1.78949 1.92343,-1.83258 1.78948,-1.86259 1.64583,-1.89597 1.50258,-1.93019 1.35046,-1.96485 1.18988,-1.99992 1.02045,-2.03666 0.84679,-2.07386 0.65579,-2.10386 0.45171,-2.13429 0.2345,-2.15625 v -2.16895 z m -69.97374,47.44151 c -38.805677,7.06546 -72.187672,-3.36988 -75.223247,-21.03784 -3.031127,-17.66835 24.153827,-38.35456 62.960102,-45.419963 38.801615,-7.067946 74.914985,2.094993 77.950575,19.760823 3.03092,17.66837 -26.88497,39.63151 -65.68743,46.69698"
       style="fill:#333f9d;fill-opacity:1;fill-rule:evenodd;stroke:none;stroke-width:0.04225468"
       id="path14" />
    <path
       d="m 47.506954,121.3888 28.68759,-3.82405 -0.512124,6.24736 -8.92039,1.40033 -1.784416,24.35601 -10.587627,1.65891 1.533086,-24.10207 -8.924189,1.1468 z m 61.678766,-6.84863 c -4.929,-1.33272 -10.201119,-1.59131 -15.481683,-0.26663 -7.247521,2.17526 -11.104109,6.07495 -12.168083,11.5837 -0.781708,4.0518 0.80749,7.07427 6.783145,7.52386 3.521927,0.26706 7.234843,-0.44959 8.802912,0.69931 1.980057,1.45019 1.393987,3.89504 -1.693986,5.25649 -4.229267,1.85879 -7.703868,0.3824 -11.768348,-1.02678 l -5.185073,7.05863 c 10.361688,3.30516 22.316806,2.43218 29.221636,-6.72651 2.56656,-3.71758 3.03558,-7.58684 -0.16479,-10.45508 -3.46107,-3.09853 -9.254189,-1.37877 -13.736145,-2.99206 -1.055097,-0.36043 -1.376654,-1.29425 -0.529873,-2.52937 1.12524,-1.63736 2.801063,-2.44696 4.955202,-2.46471 2.197246,-0.0173 4.338286,0.46269 6.448496,1.06397 z m 6.53596,-3.10065 28.68711,-3.82363 -0.50789,6.24905 -8.92841,1.40074 -1.7802,24.35559 -10.5831,1.65469 1.53258,-24.09953 -8.92842,1.14848 0.50833,-6.88539"
       style="fill:#333f9d;fill-opacity:1;fill-rule:evenodd;stroke:none;stroke-width:0.04225468"
       id="path20" />
  </g>
</svg>
